<?xml version="1.0" standalone="no"?>
<!DOCTYPE svg PUBLIC "-//W3C//DTD SVG 20010904//EN"
 "http://www.w3.org/TR/2001/REC-SVG-20010904/DTD/svg10.dtd">
<svg version="1.0" xmlns="http://www.w3.org/2000/svg"
 width="1280.000000pt" height="390.000000pt" viewBox="0 0 1280.000000 390.000000"
 preserveAspectRatio="xMidYMid meet">

<g transform="translate(0.000000,390.000000) scale(0.100000,-0.100000)"
fill="#000000" stroke="none">
<path d="M1129 2588 c-607 -721 -1108 -1317 -1112 -1325 -7 -11 67 -13 432
-13 l439 0 787 935 c433 514 791 938 796 941 5 3 9 -211 9 -513 0 -436 -2
-528 -15 -578 -19 -70 -63 -144 -108 -178 -41 -31 -112 -67 -132 -67 -13 0
-15 -37 -15 -301 l0 -302 68 6 c147 14 321 75 449 159 220 144 344 342 383
613 6 43 10 436 10 1003 l0 932 -443 0 -444 0 -1104 -1312z"/>
<path d="M3492 2918 l3 -983 23 -80 c82 -292 275 -497 569 -605 84 -30 222
-60 279 -60 l34 0 0 300 c0 269 -2 300 -16 300 -32 0 -136 65 -170 105 -18 23
-44 64 -56 91 l-23 49 -3 933 -2 932 -321 0 -320 0 3 -982z"/>
<path d="M11882 2908 l3 -993 28 -90 c102 -326 356 -543 725 -620 40 -8 89
-15 108 -15 l34 0 0 298 0 297 -49 18 c-66 23 -144 95 -178 165 l-28 57 -3
938 -2 937 -321 0 -320 0 3 -992z"/>
<path d="M7935 3560 c-462 -66 -727 -326 -785 -770 -5 -42 -10 -394 -10 -807
l0 -733 320 0 319 0 3 708 c3 680 4 709 23 757 29 74 115 157 190 185 153 56
326 -21 398 -178 22 -47 22 -53 25 -760 l3 -712 307 2 307 3 5 710 5 710 27
57 c93 199 341 249 500 100 26 -24 60 -70 75 -101 l28 -56 3 -713 3 -712 320
0 320 0 -3 788 -4 787 -23 85 c-26 97 -84 227 -131 295 -105 152 -288 271
-500 325 -218 55 -399 52 -574 -9 -94 -33 -144 -67 -251 -172 l-101 -99 -49
51 c-123 126 -251 208 -380 244 -70 19 -282 28 -370 15z"/>
<path d="M4750 2823 c0 -384 4 -735 10 -781 26 -229 104 -404 249 -555 174
-182 406 -282 682 -294 204 -9 377 28 546 116 241 126 392 319 465 594 22 80
22 97 25 850 l4 767 -325 0 -325 0 -3 -707 -3 -708 -29 -62 c-76 -165 -258
-243 -423 -181 -78 29 -161 111 -194 193 l-24 60 -3 703 -3 702 -324 0 -325 0
0 -697z"/>
<path d="M11108 2552 l-317 -377 -1 -462 0 -463 320 0 320 0 0 840 c0 462 -1
840 -2 840 -2 -1 -146 -171 -320 -378z"/>
<path d="M1463 783 c-10 -3 -13 -73 -13 -299 0 -255 2 -294 15 -294 13 0 15
40 15 300 0 165 -1 300 -2 299 -2 0 -9 -3 -15 -6z"/>
<path d="M2008 779 c-15 -8 -18 -25 -18 -104 0 -52 -2 -95 -5 -95 -3 0 -19 10
-34 21 -20 15 -44 21 -78 21 -97 0 -157 -57 -176 -167 -34 -199 102 -335 251
-250 40 23 42 23 42 4 0 -12 7 -19 20 -19 20 0 20 7 20 300 0 165 -1 300 -2
300 -2 0 -11 -5 -20 -11z m-86 -198 c13 -5 33 -19 46 -30 21 -20 22 -30 22
-150 0 -140 0 -141 -67 -175 -42 -21 -81 -20 -120 4 -42 25 -65 71 -70 145
-10 122 44 215 125 215 23 0 51 -4 64 -9z"/>
<path d="M5873 783 c-10 -3 -13 -73 -13 -299 0 -255 2 -294 15 -294 13 0 15
40 15 300 0 165 -1 300 -2 299 -2 0 -9 -3 -15 -6z"/>
<path d="M6138 779 c-17 -9 -18 -34 -18 -299 0 -283 0 -290 20 -290 20 0 20 7
20 300 0 165 -1 300 -2 300 -2 0 -11 -5 -20 -11z"/>
<path d="M11718 779 c-15 -8 -18 -25 -18 -105 l0 -96 -37 23 c-62 38 -157 25
-205 -28 -57 -62 -70 -212 -27 -299 34 -70 78 -97 150 -92 37 3 66 12 87 27
32 22 32 22 32 2 0 -14 6 -21 20 -21 20 0 20 7 20 300 0 165 -1 300 -2 300 -2
0 -11 -5 -20 -11z m-62 -210 c19 -11 39 -29 44 -39 6 -10 10 -70 10 -132 0
-112 -1 -115 -27 -140 -75 -71 -171 -61 -213 23 -46 90 -34 214 27 275 28 29
41 34 80 34 29 0 58 -8 79 -21z"/>
<path d="M1164 756 c-8 -21 3 -36 27 -36 15 0 20 6 17 22 -4 27 -35 37 -44 14z"/>
<path d="M2254 755 c-4 -9 -2 -21 4 -27 15 -15 44 -1 40 19 -4 23 -36 29 -44
8z"/>
<path d="M20 475 l0 -285 143 0 c178 0 217 14 249 86 36 83 11 170 -60 204
-37 18 -40 26 -11 35 51 17 75 114 43 180 -26 55 -62 65 -223 65 l-141 0 0
-285z m285 241 c41 -17 55 -42 55 -96 0 -33 -6 -48 -29 -71 -29 -29 -30 -29
-150 -29 l-121 0 0 98 c0 54 3 102 7 105 13 13 203 7 238 -7z m12 -253 c50
-23 75 -67 70 -122 -10 -92 -70 -123 -232 -119 l-90 3 -3 128 -3 127 112 0
c83 0 120 -4 146 -17z"/>
<path d="M2645 615 c-22 -8 -50 -27 -62 -42 l-23 -28 0 38 c0 30 -4 37 -20 37
-19 0 -20 -7 -20 -215 0 -208 1 -215 20 -215 19 0 20 7 20 150 0 164 6 190 56
229 30 24 88 28 129 9 48 -22 55 -52 55 -228 0 -153 1 -160 20 -160 19 0 20 7
20 163 0 134 -3 168 -18 196 -33 66 -104 92 -177 66z"/>
<path d="M3154 619 c-48 -14 -93 -66 -111 -128 -30 -105 0 -244 61 -285 56
-36 128 -33 190 9 l36 24 0 -42 c0 -51 -29 -102 -71 -125 -57 -32 -65 -40 -53
-52 16 -16 83 19 117 60 41 48 47 90 47 323 0 210 -1 217 -20 217 -15 0 -20
-7 -20 -25 l0 -24 -36 24 c-20 14 -44 25 -53 25 -9 0 -25 2 -36 4 -11 3 -34 0
-51 -5z m114 -43 c59 -30 63 -42 60 -176 l-3 -123 -38 -31 c-32 -25 -48 -31
-87 -31 -86 0 -130 64 -130 190 1 141 96 224 198 171z"/>
<path d="M3977 616 c-50 -18 -72 -39 -99 -94 -38 -80 -26 -219 25 -283 26 -33
82 -59 127 -59 47 0 130 32 130 49 0 20 -18 20 -56 0 -94 -49 -187 7 -209 124
l-7 37 156 0 156 0 0 39 c0 136 -110 228 -223 187z m128 -48 c32 -25 55 -74
55 -118 l0 -30 -136 0 -136 0 7 33 c13 56 24 78 56 108 40 37 111 41 154 7z"/>
<path d="M4955 615 c-47 -16 -91 -65 -105 -115 -15 -54 -12 -166 5 -208 30
-72 86 -112 155 -112 46 0 98 19 118 43 22 27 -5 30 -54 7 -108 -53 -197 25
-197 171 0 81 30 152 74 174 39 21 96 19 134 -5 28 -17 34 -18 44 -6 10 12 7
18 -13 31 -23 16 -86 35 -111 34 -5 0 -28 -6 -50 -14z"/>
<path d="M5437 616 c-84 -31 -121 -95 -121 -211 -1 -140 52 -214 160 -223 72
-6 171 40 135 62 -5 3 -29 -3 -52 -14 -54 -24 -81 -25 -125 -4 -41 19 -71 65
-80 122 l-7 42 158 0 158 0 -6 51 c-16 137 -113 214 -220 175z m114 -42 c33
-17 68 -82 69 -126 l0 -28 -136 0 -136 0 7 37 c21 112 107 164 196 117z"/>
<path d="M6499 620 c-48 -14 -78 -41 -104 -93 -20 -41 -25 -65 -25 -126 1
-141 66 -221 178 -221 40 0 122 33 122 49 0 20 -18 20 -56 1 -21 -11 -52 -20
-70 -20 -63 0 -127 68 -136 145 l-3 30 153 3 152 3 0 47 c0 52 -26 117 -58
145 -22 20 -87 46 -112 46 -8 -1 -27 -4 -41 -9z m115 -51 c32 -25 51 -61 60
-111 l7 -38 -139 0 -140 0 10 42 c12 54 41 102 70 116 39 18 103 14 132 -9z"/>
<path d="M7025 615 c-22 -8 -50 -26 -62 -40 -29 -33 -33 -32 -33 10 0 24 -5
35 -15 35 -13 0 -15 -31 -15 -215 0 -177 2 -215 14 -215 11 0 15 30 18 148 3
113 8 154 21 179 42 78 128 98 189 44 l33 -29 3 -171 c3 -164 4 -171 23 -171
20 0 21 5 17 173 -2 145 -6 177 -21 200 -36 55 -105 76 -172 52z"/>
<path d="M7539 620 c-78 -23 -120 -88 -127 -195 -9 -150 58 -245 174 -245 40
0 93 20 112 43 22 27 -5 30 -54 7 -108 -53 -194 23 -194 170 0 115 53 190 134
190 23 0 55 -9 73 -19 26 -17 33 -18 43 -6 14 17 -21 43 -77 56 -44 10 -49 10
-84 -1z"/>
<path d="M8007 616 c-50 -18 -72 -39 -99 -94 -38 -80 -26 -219 25 -283 26 -33
82 -59 127 -59 47 0 130 32 130 49 0 20 -18 20 -56 0 -94 -49 -187 7 -209 124
l-7 37 156 0 156 0 0 39 c0 136 -110 228 -223 187z m128 -48 c32 -25 55 -74
55 -118 l0 -30 -136 0 -136 0 7 33 c13 56 24 78 56 108 40 37 111 41 154 7z"/>
<path d="M8825 615 c-84 -29 -133 -127 -122 -244 10 -113 68 -181 161 -189 57
-5 122 17 132 43 10 26 0 26 -51 4 -53 -23 -100 -21 -142 6 -29 19 -62 88 -63
128 l0 27 156 0 157 0 -7 53 c-18 138 -111 211 -221 172z m110 -37 c33 -15 62
-63 71 -116 l7 -42 -137 0 c-134 0 -136 0 -136 23 1 35 35 102 65 125 31 25
89 29 130 10z"/>
<path d="M9829 621 c-48 -15 -78 -42 -104 -94 -20 -41 -25 -65 -25 -126 1
-141 66 -221 178 -221 40 0 122 33 122 49 0 20 -18 20 -56 1 -21 -11 -52 -20
-70 -20 -64 0 -122 63 -138 148 l-5 32 154 0 155 0 0 43 c-1 50 -21 110 -47
139 -37 42 -114 64 -164 49z m115 -52 c32 -25 51 -61 59 -111 l6 -38 -139 0
-139 0 6 33 c8 47 44 107 73 123 38 21 103 17 134 -7z"/>
<path d="M10370 620 c-19 -5 -47 -22 -62 -39 l-28 -31 0 35 c0 28 -4 35 -20
35 -19 0 -20 -7 -20 -215 0 -208 1 -215 20 -215 19 0 20 7 20 140 0 201 25
250 129 255 32 1 47 6 49 17 2 13 -29 30 -48 27 -3 -1 -21 -5 -40 -9z"/>
<path d="M12048 620 c-60 -11 -79 -21 -69 -39 7 -11 15 -11 41 -2 41 14 110
14 145 1 15 -6 32 -24 40 -45 16 -36 20 -115 8 -115 -5 0 -30 7 -58 16 -85 26
-174 2 -209 -56 -20 -35 -21 -102 -1 -139 32 -62 136 -79 221 -36 27 14 50 25
52 25 1 0 2 -9 2 -20 0 -11 7 -20 15 -20 13 0 15 27 15 181 l0 181 -34 34
c-19 19 -44 34 -57 34 -13 0 -33 2 -44 4 -11 2 -41 0 -67 -4z m135 -224 c35
-16 37 -18 37 -64 0 -38 -5 -53 -22 -69 -81 -73 -188 -71 -224 5 -15 32 -15
41 -3 77 25 72 111 93 212 51z"/>
<path d="M622 448 c3 -137 8 -180 21 -205 25 -46 68 -66 134 -61 46 4 60 10
93 43 l40 39 0 -37 c0 -26 4 -37 15 -37 13 0 15 31 15 215 0 177 -2 215 -14
215 -11 0 -15 -30 -18 -147 -4 -166 -17 -211 -72 -244 -64 -39 -146 -10 -165
58 -6 21 -11 104 -11 186 0 143 -1 147 -21 147 -21 0 -21 -2 -17 -172z"/>
<path d="M1170 405 c0 -208 1 -215 20 -215 19 0 20 7 20 215 0 208 -1 215 -20
215 -19 0 -20 -7 -20 -215z"/>
<path d="M2260 405 c0 -184 2 -215 15 -215 13 0 15 31 15 215 0 184 -2 215
-15 215 -13 0 -15 -31 -15 -215z"/>
<path d="M4382 598 c8 -12 36 -60 62 -106 l48 -82 -61 -104 c-34 -58 -61 -107
-61 -110 0 -3 8 -6 18 -6 11 0 34 29 66 85 27 47 52 87 56 90 4 3 30 -34 57
-83 35 -61 56 -88 72 -90 11 -2 21 -1 21 1 0 3 -27 51 -60 107 -33 56 -60 106
-60 112 0 6 22 47 50 92 63 106 67 116 44 116 -13 0 -34 -27 -68 -86 -26 -47
-51 -82 -55 -79 -3 3 -26 41 -51 83 -34 57 -52 78 -70 80 -22 4 -23 3 -8 -20z"/>
<path d="M9203 608 c2 -7 37 -104 78 -215 98 -271 92 -271 191 10 61 171 73
213 61 215 -21 5 -22 3 -88 -191 -32 -95 -61 -176 -65 -180 -4 -4 -35 72 -70
170 -35 98 -65 184 -68 191 -2 6 -13 12 -24 12 -12 0 -18 -5 -15 -12z"/>
<path d="M10620 538 c17 -46 54 -145 82 -221 l50 -137 -26 -71 c-30 -81 -31
-89 -12 -89 8 0 21 19 30 42 123 328 201 554 194 556 -23 10 -38 -19 -98 -192
-36 -102 -67 -186 -70 -186 -3 0 -35 84 -71 188 -56 158 -70 188 -88 190 -21
3 -20 2 9 -80z"/>
<path d="M12430 613 c0 -3 34 -98 75 -210 41 -112 75 -213 75 -223 0 -11 -11
-49 -25 -86 -30 -78 -29 -74 -9 -74 8 0 21 15 29 34 16 38 205 557 205 562 0
2 -8 4 -18 4 -14 0 -32 -40 -86 -191 -38 -105 -72 -187 -76 -182 -4 4 -35 90
-71 191 -50 144 -67 182 -81 182 -10 0 -18 -3 -18 -7z"/>
</g>
</svg>
