<?xml version="1.0" standalone="no"?>
<!DOCTYPE svg PUBLIC "-//W3C//DTD SVG 20010904//EN"
 "http://www.w3.org/TR/2001/REC-SVG-20010904/DTD/svg10.dtd">
<svg version="1.0" xmlns="http://www.w3.org/2000/svg"
 width="1044.000000pt" height="340.000000pt" viewBox="0 0 1044.000000 340.000000"
 preserveAspectRatio="xMidYMid meet">

<g transform="translate(0.000000,340.000000) scale(0.100000,-0.100000)"
fill="#000000" stroke="none">
<path d="M1670 3209 c-357 -38 -647 -176 -900 -429 -179 -178 -294 -362 -370
-589 -57 -168 -74 -277 -74 -461 1 -187 19 -306 75 -481 73 -229 171 -390 351
-575 64 -66 152 -145 195 -177 278 -199 652 -303 998 -276 270 21 488 95 706
240 114 76 310 268 398 388 202 279 307 658 272 986 -59 553 -325 952 -811
1217 -232 127 -557 187 -840 157z m385 -44 c161 -26 274 -63 421 -135 171 -83
266 -154 404 -297 203 -210 322 -426 382 -694 20 -91 23 -130 23 -314 -1 -180
-4 -225 -24 -315 -63 -292 -184 -514 -396 -725 -207 -207 -460 -345 -748 -407
-141 -30 -470 -33 -592 -4 -384 90 -689 297 -917 624 -97 140 -187 353 -225
532 -28 132 -25 449 6 590 48 224 133 412 265 584 69 90 230 247 316 308 165
117 421 223 610 252 127 19 362 20 475 1z"/>
<path d="M1686 3133 c-3 -4 -6 -12 -6 -18 0 -8 13 -10 43 -6 68 10 294 0 329
-14 9 -4 21 -4 27 -1 5 4 12 2 15 -2 7 -12 76 -14 76 -2 0 6 -3 10 -7 11 -5 0
-15 2 -23 4 -31 7 -86 16 -125 22 -58 8 -322 12 -329 6z"/>
<path d="M1600 3123 c-19 -2 -42 -6 -50 -10 -8 -3 -30 -7 -49 -9 -18 -2 -40
-9 -49 -16 -8 -7 -18 -12 -21 -10 -9 5 -94 -19 -106 -29 -5 -5 -17 -9 -27 -9
-10 0 -18 -4 -18 -10 0 -5 -6 -10 -14 -10 -29 0 -184 -86 -276 -154 -89 -65
-260 -226 -260 -245 0 -5 -7 -11 -15 -15 -8 -3 -15 -12 -15 -20 0 -7 -7 -16
-15 -20 -8 -3 -15 -12 -15 -21 0 -8 -4 -15 -10 -15 -5 0 -10 -5 -10 -11 0 -6
-11 -25 -25 -43 -14 -18 -25 -38 -25 -44 0 -7 -4 -12 -8 -12 -13 0 -92 -167
-92 -194 0 -9 -4 -16 -9 -16 -5 0 -12 -20 -15 -45 -4 -24 -12 -47 -17 -51 -6
-3 -8 -12 -5 -20 3 -7 0 -16 -5 -20 -6 -3 -9 -15 -6 -25 3 -10 1 -19 -4 -21
-25 -9 -43 -375 -24 -498 3 -19 8 -53 11 -75 3 -22 10 -45 15 -51 5 -6 6 -14
3 -17 -3 -3 -2 -12 2 -19 5 -7 9 -17 9 -23 1 -20 26 -100 35 -117 6 -10 10
-22 10 -28 0 -19 81 -180 90 -180 6 0 10 -9 10 -20 0 -11 5 -20 10 -20 6 0 10
-5 10 -10 0 -14 86 -135 123 -172 9 -10 17 -20 17 -22 0 -8 47 -56 54 -56 13
0 5 31 -9 36 -8 4 -15 12 -15 20 0 8 -4 14 -8 14 -5 0 -26 25 -48 55 -21 30
-42 55 -46 55 -5 0 -8 7 -8 15 0 7 -6 18 -12 22 -12 7 -68 105 -68 118 0 3
195 4 433 3 237 0 417 -3 399 -5 -23 -3 -32 -9 -30 -20 2 -11 -17 -24 -66 -44
-38 -16 -71 -29 -73 -29 -1 0 -3 9 -3 20 0 13 -7 20 -20 20 -25 0 -27 -37 -2
-42 9 -2 -16 -15 -57 -29 -56 -18 -75 -21 -78 -11 -3 6 -14 12 -25 12 -16 0
-19 -5 -16 -24 5 -23 -9 -33 -105 -74 -4 -2 -6 2 -5 9 2 8 -7 15 -19 17 -25 4
-28 -4 -13 -28 8 -12 -3 -27 -48 -66 l-57 -52 28 -26 c15 -14 30 -26 33 -26 3
0 18 -14 34 -30 16 -17 32 -30 35 -30 4 0 13 -6 20 -12 29 -26 40 -34 58 -41
9 -3 17 -10 17 -15 0 -4 16 -14 35 -22 19 -8 35 -17 35 -21 0 -11 208 -109
232 -109 8 0 19 -5 25 -11 12 -12 33 -4 33 12 0 5 -7 9 -15 9 -8 0 -23 4 -33
9 -40 21 -91 41 -106 41 -9 0 -16 5 -16 10 0 6 -7 10 -16 10 -8 0 -22 7 -31
15 -8 8 -19 13 -24 10 -5 -4 -9 -2 -9 3 0 5 -18 17 -40 28 -22 10 -40 22 -40
27 0 4 -7 7 -15 7 -8 0 -27 12 -44 27 -16 16 -44 39 -62 53 -18 14 -44 36 -58
48 l-26 24 30 24 c64 53 174 109 363 184 108 43 198 78 199 76 1 -1 -8 -14
-20 -29 -17 -20 -39 -30 -97 -42 -47 -9 -113 -34 -179 -67 -111 -56 -123 -76
-19 -33 35 14 70 29 78 32 10 4 9 -1 -5 -17 -25 -29 -117 -73 -200 -95 -36
-10 -65 -21 -65 -25 0 -16 43 -60 58 -60 25 0 73 32 181 120 84 68 147 110
166 110 12 0 4 -59 -11 -71 -22 -18 -64 -104 -64 -131 0 -18 6 -14 26 22 27
48 62 90 75 90 4 0 -15 -44 -42 -97 -32 -64 -52 -116 -55 -148 l-5 -50 57 108
c31 59 57 107 59 105 1 -2 -2 -30 -8 -63 -9 -52 -3 -164 8 -153 2 2 12 52 21
111 9 59 20 107 24 107 7 0 20 -151 20 -245 1 -43 2 -47 12 -30 7 11 15 67 18
125 l5 105 29 -108 c29 -109 47 -127 38 -38 -4 47 -4 48 29 57 48 14 43 37 -8
47 -24 4 -43 14 -43 20 0 7 -13 39 -28 72 -25 52 -28 69 -24 128 3 43 0 72 -7
81 -20 24 2 26 90 9 59 -12 144 -17 286 -17 111 0 199 -4 197 -8 -6 -10 13
-47 39 -75 18 -20 18 -23 4 -23 -24 0 -21 -27 3 -35 16 -5 20 -15 20 -56 0
-35 -4 -49 -14 -49 -7 0 -16 9 -19 21 -7 27 -27 15 -27 -16 0 -24 30 -42 50
-30 5 3 10 2 10 -4 0 -5 -10 -11 -22 -13 -32 -5 -33 -26 -1 -40 l28 -11 -30
-6 c-31 -6 -45 -35 -27 -53 7 -7 14 -3 21 11 7 12 18 21 26 21 18 0 12 -56
-15 -135 -9 -27 -15 -55 -13 -61 4 -12 -48 -24 -104 -24 -24 0 -33 -5 -33 -16
0 -14 9 -16 62 -10 35 4 65 11 68 14 3 4 21 8 40 10 45 3 193 47 243 73 22 10
45 19 53 19 8 0 14 5 14 10 0 6 9 10 20 10 11 0 20 5 20 10 0 6 9 10 20 10 11
0 20 5 20 10 0 6 5 10 11 10 17 0 179 110 179 121 0 5 7 9 15 9 9 0 18 7 21
15 4 8 12 15 20 15 8 0 14 7 14 15 0 8 5 15 10 15 13 0 90 77 90 90 0 6 7 10
15 10 8 0 15 7 15 15 0 8 -7 15 -15 15 -8 0 -15 -4 -15 -10 0 -5 -9 -19 -21
-31 l-20 -20 -33 24 c-103 79 -141 118 -138 143 3 18 -1 24 -16 24 -11 0 -22
-5 -24 -11 -5 -14 -104 45 -112 66 -3 8 -15 15 -26 15 -24 0 -60 17 -75 36 -5
7 -26 15 -45 17 -19 2 129 4 330 4 201 0 355 -2 343 -4 -23 -4 -33 -23 -13
-23 6 0 10 -9 10 -20 0 -16 -6 -20 -31 -18 -36 3 -53 -20 -21 -29 18 -4 19 -8
9 -24 -8 -12 -19 -16 -33 -13 -26 7 -40 -11 -25 -30 20 -24 3 -46 -30 -39 -24
5 -29 2 -29 -14 0 -11 10 -25 24 -31 20 -9 26 -7 45 18 11 16 21 34 21 40 0 5
4 10 8 10 11 0 64 76 83 118 7 17 17 32 21 32 5 0 8 9 8 20 0 11 5 20 10 20 6
0 10 9 10 20 0 11 5 20 10 20 6 0 10 9 10 19 0 11 5 23 10 26 6 3 10 15 10 26
0 10 4 19 9 19 5 0 12 17 16 37 4 21 11 43 17 50 5 6 10 28 11 47 1 20 5 36 9
36 5 0 17 59 35 170 7 44 11 274 6 307 -12 72 -22 26 -24 -104 -1 -148 -2
-159 -14 -243 -4 -30 -9 -62 -10 -70 -1 -8 -5 -22 -8 -30 -3 -8 -13 -40 -21
-70 -30 -111 -40 -140 -48 -140 -4 0 -8 -6 -8 -13 0 -8 -7 -27 -15 -44 l-15
-30 -401 -7 c-220 -4 -403 -5 -407 -2 -8 8 29 46 45 46 21 0 15 31 -7 37 -11
3 -20 11 -20 18 0 7 -9 15 -21 18 -26 7 -39 -21 -17 -37 14 -10 14 -14 -2 -34
-12 -15 -24 -20 -36 -15 -15 6 -15 7 4 14 25 9 30 29 7 29 -20 0 -19 37 2 48
21 12 9 45 -14 40 -12 -3 -17 -12 -16 -26 3 -26 -3 -28 -24 -7 -14 14 -18 14
-39 0 -21 -14 -24 -14 -24 0 0 8 7 15 15 15 8 0 15 7 15 15 0 18 -26 20 -33 3
-4 -10 -7 -10 -18 0 -9 9 -14 36 -14 81 0 62 4 73 49 152 27 47 68 101 92 122
52 46 75 110 78 222 1 43 8 80 15 89 9 11 12 37 9 83 -3 38 -1 98 5 134 8 63
7 70 -21 130 -41 90 -128 176 -228 225 l-78 39 -149 3 c-122 3 -153 1 -172
-12 -13 -9 -38 -16 -56 -16 -22 0 -41 -10 -66 -35 -19 -19 -41 -35 -48 -35
-16 0 -115 -105 -115 -123 0 -7 -13 -23 -29 -35 -27 -20 -29 -26 -35 -114 -4
-51 -6 -120 -6 -152 1 -33 -4 -72 -11 -88 -9 -23 -8 -32 5 -53 9 -13 16 -43
16 -65 0 -22 9 -58 19 -78 10 -20 24 -56 30 -80 8 -29 20 -46 37 -54 17 -8 48
-53 97 -142 61 -112 71 -137 72 -181 0 -40 -3 -49 -15 -46 -58 15 -63 14 -58
-7 4 -13 2 -19 -6 -16 -6 2 -18 -1 -26 -6 -13 -9 -13 -11 0 -20 8 -5 20 -11
25 -13 6 -3 7 -8 3 -12 -10 -10 -68 37 -63 52 2 6 -2 19 -10 29 -11 15 -15 16
-29 5 -12 -10 -13 -18 -5 -32 5 -11 14 -17 19 -14 4 3 6 -4 3 -14 -5 -21 29
-47 47 -36 6 3 10 -1 10 -10 0 -8 10 -20 23 -25 20 -8 20 -9 2 -10 -11 0 -31
-3 -44 -7 -20 -5 -22 -3 -17 15 5 15 1 24 -13 31 -31 17 -43 14 -31 -8 16 -31
13 -31 -46 1 -51 28 -57 29 -71 15 -15 -14 -13 -17 18 -31 31 -13 -2 -14 -353
-15 -339 -1 -388 1 -388 14 0 8 -11 38 -24 65 -14 28 -28 65 -31 83 -4 18 -11
37 -15 42 -8 11 -39 141 -44 190 -2 17 -4 30 -5 30 -9 0 -15 291 -7 332 3 15
8 50 11 78 9 83 53 235 96 335 37 84 87 177 107 198 6 7 12 17 12 21 0 4 8 16
18 27 10 10 28 36 41 57 12 20 27 37 32 37 5 0 9 4 9 9 0 8 136 151 144 151 4
0 59 45 87 73 11 9 22 17 26 17 3 0 21 11 39 25 18 14 37 25 42 25 6 0 12 3
14 8 3 6 155 83 203 102 92 37 275 82 323 81 22 0 32 4 32 14 0 8 -8 14 -17
13 -10 0 -34 -3 -53 -5z m340 -652 c0 -10 -7 -24 -15 -31 -8 -7 -15 -16 -15
-21 0 -5 7 -9 15 -9 10 0 15 -10 15 -32 0 -49 23 -19 30 39 3 27 11 48 19 51
23 7 10 -187 -14 -204 -13 -10 -15 -20 -10 -46 7 -30 6 -32 -10 -18 -13 11
-16 24 -11 58 5 37 3 43 -9 38 -9 -3 -18 1 -21 9 -4 8 -17 15 -30 15 -19 0
-24 5 -24 25 0 31 7 31 37 3 31 -29 42 -15 15 22 -25 33 -27 57 -10 95 13 29
38 34 38 6z m-103 -4 c10 -10 9 -72 -1 -77 -6 -3 -13 9 -18 27 -5 18 -13 35
-20 39 -16 10 -2 -100 19 -139 9 -18 22 -50 28 -72 15 -48 31 -48 28 1 -2 25
1 34 10 31 7 -2 11 -19 10 -41 -2 -24 2 -36 11 -36 9 0 12 -8 8 -25 -5 -30 -9
-31 -34 -8 -16 15 -21 15 -28 3 -5 -8 -11 -12 -12 -10 -4 5 -41 165 -53 226
-4 20 -12 31 -22 30 -20 -1 -38 27 -29 49 5 14 15 17 52 12 25 -2 48 -7 51
-10z m-143 -34 c-9 -35 -13 -43 -25 -43 -10 0 -12 30 -3 54 3 9 12 16 20 16
11 0 13 -7 8 -27z m-54 11 c0 -3 -9 -13 -21 -23 -23 -18 -27 -48 -15 -98 6
-26 4 -33 -8 -33 -38 0 -45 84 -11 136 13 21 55 34 55 18z m487 -39 c1 0 -5
-15 -13 -34 -13 -32 -15 -33 -28 -16 -7 10 -11 29 -8 43 4 18 1 23 -9 20 -8
-3 -16 -24 -19 -49 -5 -41 -6 -42 -18 -22 -19 34 -14 60 15 82 l26 21 26 -22
c14 -13 27 -23 28 -23z m-381 -36 c3 -6 -3 -24 -15 -40 -25 -34 -26 -59 -5
-101 l16 -31 -30 24 c-27 22 -30 28 -25 69 3 25 12 50 19 56 8 6 14 16 14 23
0 14 17 14 26 0z m432 -93 c-2 -48 1 -82 7 -84 6 -1 11 8 13 20 10 86 14 108
23 103 14 -9 11 -60 -7 -121 -26 -92 -44 -67 -54 76 -5 85 -7 92 -18 68 -15
-36 -25 -37 -11 -2 15 42 20 46 35 33 11 -9 14 -32 12 -93z m-667 76 c-12 -23
-40 -47 -46 -40 -3 3 4 17 16 31 24 31 45 37 30 9z m146 -91 c-7 -64 5 -87 38
-75 12 5 23 1 31 -11 32 -43 5 -47 -60 -7 -38 23 -45 32 -46 59 0 27 27 93 39
93 2 0 1 -27 -2 -59z m126 -21 c9 -32 17 -65 17 -72 -1 -23 -30 25 -30 49 0
12 -9 27 -20 33 -30 16 -24 44 10 49 3 1 13 -26 23 -59z m252 4 c1 -27 5 -58
9 -69 7 -17 5 -16 -18 5 -24 23 -26 30 -20 73 9 62 29 56 29 -9z m-504 15 c7
-13 6 -26 -3 -41 l-13 -23 -3 28 c-2 19 -9 27 -22 27 -27 0 -40 -30 -40 -88 0
-34 -5 -54 -17 -63 -15 -13 -15 -12 -4 10 7 13 11 40 9 60 -5 36 15 100 34
112 16 10 48 -2 59 -22z m601 -20 c-3 -28 -7 -37 -13 -28 -10 17 -12 53 -2 62
14 15 18 5 15 -34z m-529 -38 c8 -61 3 -78 -13 -35 -5 16 -15 37 -20 46 -16
28 -12 50 7 46 13 -2 20 -18 26 -57z m644 -8 c-3 -10 -5 -4 -5 12 0 17 2 24 5
18 2 -7 2 -21 0 -30z m-837 -13 c0 -17 -27 -36 -38 -25 -3 3 0 16 6 31 13 27
32 24 32 -6z m80 9 c0 -11 -4 -17 -10 -14 -5 3 -10 13 -10 21 0 8 5 14 10 14
6 0 10 -9 10 -21z m670 -65 c0 -13 -4 -24 -10 -24 -5 0 -10 14 -10 31 0 17 4
28 10 24 6 -3 10 -17 10 -31z m-528 -34 c9 0 18 6 20 12 3 9 12 8 31 -5 35
-23 57 -22 57 4 0 27 24 19 28 -9 4 -29 20 -28 34 3 14 30 38 33 45 5 6 -24 6
-24 45 -4 17 9 40 13 54 10 14 -4 24 -2 24 4 0 19 24 10 57 -22 27 -26 35 -29
48 -18 11 9 18 10 29 1 11 -9 15 -9 18 0 6 19 26 2 47 -39 14 -28 20 -71 25
-172 6 -121 5 -141 -14 -195 -57 -166 -153 -307 -246 -361 -59 -35 -148 -43
-208 -20 -81 31 -191 162 -245 291 -20 47 -26 81 -29 163 -4 107 -12 121 -46
83 -12 -13 -14 -24 -8 -42 12 -32 25 -119 17 -119 -13 0 -53 111 -57 163 l-5
57 34 11 c31 10 33 13 33 58 0 74 16 108 57 122 22 7 42 24 55 46 l21 34 31
-30 c18 -17 39 -31 48 -31z m638 56 c0 -2 -6 -19 -14 -37 -11 -27 -16 -30 -21
-17 -7 18 10 58 25 58 6 0 10 -2 10 -4z m-876 -68 c-3 -18 -8 -60 -13 -93 l-7
-60 -8 65 c-8 65 3 120 23 120 5 0 8 -15 5 -32z m861 -58 c3 -11 2 -28 -4 -37
-8 -14 -10 -15 -11 -3 0 8 -3 25 -6 38 -8 27 12 30 21 2z m25 -67 c0 -19 -33
-92 -40 -88 -8 5 2 64 14 84 8 12 26 15 26 4z m-14 -137 c10 -27 -17 -126 -43
-157 -14 -16 -28 -28 -30 -25 -2 2 3 25 11 50 9 26 16 69 16 96 0 44 3 50 20
50 11 0 23 -6 26 -14z m-476 -623 c48 -43 78 -45 121 -9 47 40 69 32 104 -40
17 -33 40 -75 53 -92 l23 -32 -235 0 c-130 0 -236 1 -236 3 0 1 7 20 15 42 8
23 14 78 15 128 l0 87 50 -25 c28 -14 69 -42 90 -62z m-180 -87 c-18 -59 -39
-86 -67 -86 l-25 0 22 33 c34 50 62 116 69 161 l6 41 3 -55 c2 -30 -2 -73 -8
-94z m493 54 c18 -30 46 -64 64 -76 36 -24 33 -34 -7 -34 -46 0 -92 68 -103
150 -7 50 -6 49 46 -40z m-528 28 c-6 -16 -45 -13 -45 3 0 5 6 6 14 3 8 -3 17
0 21 6 10 16 17 6 10 -12z m595 -2 c0 -8 -6 -16 -14 -19 -10 -4 -12 0 -9 14 6
22 23 26 23 5z m18 -41 c-6 -13 -16 -21 -21 -18 -8 5 -7 8 1 11 7 2 12 10 12
18 0 8 4 14 10 14 6 0 5 -10 -2 -25z m-638 -9 c0 -3 -4 -8 -10 -11 -5 -3 -10
-1 -10 4 0 6 5 11 10 11 6 0 10 -2 10 -4z m821 -145 c61 -27 153 -75 205 -106
100 -60 228 -172 207 -182 -7 -2 -13 -11 -13 -19 0 -18 -23 -18 -113 2 -71 16
-73 17 -69 44 3 21 -1 31 -18 40 -26 14 -38 6 -21 -14 22 -26 1 -40 -24 -16
-29 27 -80 25 -80 -4 0 -11 6 -21 13 -23 6 -3 12 2 12 11 0 22 13 20 35 -4 20
-23 17 -25 -55 -35 -65 -8 -144 -48 -222 -111 l-68 -55 0 140 c0 126 2 140 18
140 41 0 79 15 99 40 l23 26 0 -26 c0 -30 27 -47 44 -28 8 8 8 13 -1 16 -23 8
-13 28 25 48 46 25 54 57 18 80 -19 13 -29 14 -45 5 -12 -6 -21 -17 -21 -25 0
-18 12 -19 28 -3 9 9 15 9 23 1 7 -7 3 -17 -17 -32 -38 -30 -46 -26 -43 17 3
41 -28 102 -58 114 -10 3 -12 7 -5 7 7 1 63 -21 123 -48z m-171 25 c0 -11 -19
-15 -25 -6 -3 5 1 10 9 10 9 0 16 -2 16 -4z m-60 -16 c0 -5 -4 -10 -10 -10 -5
0 -10 5 -10 10 0 6 5 10 10 10 6 0 10 -4 10 -10z m115 -10 c3 -5 1 -10 -4 -10
-6 0 -11 5 -11 10 0 6 2 10 4 10 3 0 8 -4 11 -10z m-215 -17 c-29 -13 -66 -14
-225 -9 -316 11 -324 23 -15 24 256 0 273 -1 240 -15z m185 -19 c9 -9 15 -24
13 -33 -5 -22 -48 -15 -68 10 -17 22 -30 16 -30 -14 0 -10 9 -21 20 -24 20 -5
28 -23 11 -23 -15 0 -41 30 -41 47 0 45 63 69 95 37z m-115 2 c0 -3 -4 -8 -10
-11 -5 -3 -10 -1 -10 4 0 6 5 11 10 11 6 0 10 -2 10 -4z m180 -10 c0 -3 -4 -8
-10 -11 -5 -3 -10 -1 -10 4 0 6 5 11 10 11 6 0 10 -2 10 -4z m-190 -46 c0 -5
-4 -10 -10 -10 -5 0 -10 5 -10 10 0 6 5 10 10 10 6 0 10 -4 10 -10z m-632 -42
l3 -38 -40 0 -41 0 0 41 0 40 38 -3 c35 -3 37 -5 40 -40z m812 32 c0 -5 -2
-10 -4 -10 -3 0 -8 5 -11 10 -3 6 -1 10 4 10 6 0 11 -4 11 -10z m-30 -40 c0
-5 -4 -10 -10 -10 -5 0 -10 5 -10 10 0 6 5 10 10 10 6 0 10 -4 10 -10z m-60
-20 c0 -5 -2 -10 -4 -10 -3 0 -8 5 -11 10 -3 6 -1 10 4 10 6 0 11 -4 11 -10z
m-1100 -104 c0 -2 -16 -14 -35 -26 -30 -18 -38 -20 -51 -9 -14 12 -12 15 17
25 35 13 69 17 69 10z m1433 -98 c-9 -18 -17 -34 -18 -36 -2 -2 -16 11 -32 27
-29 29 -30 30 -9 34 11 2 33 5 48 6 l26 1 -15 -32z m179 14 c5 -5 2 -14 -7
-22 -12 -10 -15 -10 -15 4 0 24 -27 19 -46 -9 -21 -33 -30 -32 -37 4 -4 16
-14 32 -24 35 -10 3 13 3 51 1 38 -3 73 -8 78 -13z m-292 -21 c-5 -11 -10 -29
-10 -40 0 -25 -13 -27 -30 -5 -8 8 -25 14 -39 12 -23 -3 -26 -7 -25 -44 l1
-41 -33 10 c-59 18 -75 -3 -49 -65 5 -13 0 -17 -26 -20 -17 -2 -37 -11 -43
-20 -12 -20 -3 -34 16 -22 15 10 88 12 88 3 0 -5 -51 -18 -140 -36 -14 -2 -21
-1 -15 4 6 4 21 30 35 58 35 70 123 155 199 193 75 37 85 39 71 13z m160 -25
c0 -8 7 -19 15 -26 19 -16 11 -30 -15 -23 -52 14 -192 -42 -260 -104 -29 -26
-40 -31 -40 -19 0 9 -8 29 -17 43 -18 26 -17 27 2 18 11 -4 34 -9 50 -9 29 -1
30 1 29 42 0 23 1 42 3 42 2 0 16 -9 31 -20 38 -28 61 -17 69 32 6 41 6 41 19
16 25 -48 66 -46 83 4 10 28 31 31 31 4z m-50 -90 c0 -8 -151 -79 -156 -74 -6
7 60 46 106 64 38 14 50 16 50 10z m-170 -86 c0 -5 -5 -10 -11 -10 -5 0 -7 5
-4 10 3 6 8 10 11 10 2 0 4 -4 4 -10z"/>
<path d="M1572 1946 c-29 -13 -58 -28 -65 -35 -16 -16 42 -15 84 3 37 15 107
9 146 -12 38 -21 45 -47 38 -140 -6 -73 -5 -85 6 -74 10 9 14 43 14 119 l0
106 -49 25 c-67 33 -110 35 -174 8z"/>
<path d="M1970 1963 c-69 -23 -120 -48 -120 -58 0 -23 24 -23 72 1 67 34 124
32 176 -6 48 -35 58 -19 15 22 -43 41 -97 57 -143 41z"/>
<path d="M1573 1875 c-39 -17 -51 -28 -47 -39 3 -9 10 -16 15 -16 4 0 14 -12
21 -27 17 -37 57 -50 108 -36 22 5 40 9 40 7 0 -2 -19 -17 -42 -34 -33 -24
-37 -30 -20 -30 39 0 71 22 86 62 24 58 20 80 -21 111 -44 33 -73 34 -140 2z
m114 -50 c-4 -9 -18 -15 -34 -14 l-28 1 28 10 c15 5 27 15 27 21 0 5 3 8 6 4
4 -3 4 -13 1 -22z m-89 -17 c11 -14 10 -16 -7 -11 -12 3 -21 9 -21 12 0 8 12
23 14 19 1 -2 7 -11 14 -20z"/>
<path d="M1920 1878 c-39 -20 -45 -28 -48 -58 -3 -34 0 -36 67 -72 69 -38 105
-47 116 -28 4 6 -5 10 -20 10 -15 0 -24 4 -20 10 3 6 15 10 25 10 23 0 58 32
41 38 -8 3 -5 9 7 18 27 19 18 51 -22 75 -41 25 -92 24 -146 -3z m144 -44 c3
-8 2 -12 -3 -9 -5 3 -12 1 -16 -5 -7 -11 -65 -14 -65 -2 0 4 12 8 27 9 15 0
29 6 31 12 5 16 19 13 26 -5z m-81 -53 c-1 -2 -16 2 -33 9 -28 12 -38 29 -24
43 7 6 62 -44 57 -52z"/>
<path d="M1725 1610 c-9 -17 -14 -34 -11 -39 10 -15 107 -20 157 -9 41 9 49
15 49 34 0 12 -7 24 -15 28 -10 4 -15 -1 -15 -16 0 -12 -3 -19 -6 -16 -3 4
-20 2 -37 -3 -18 -5 -47 -6 -65 -3 -29 6 -33 10 -28 30 9 34 -11 30 -29 -6z"/>
<path d="M1797 1534 c-4 -4 -7 -15 -7 -23 0 -19 -54 -43 -77 -34 -11 4 -14 1
-11 -13 3 -17 12 -19 76 -16 47 2 72 0 72 -7 0 -6 -18 -11 -41 -11 -25 0 -38
-4 -34 -10 4 -6 2 -17 -4 -24 -14 -17 13 -26 77 -26 39 0 43 2 37 20 -7 23 22
69 45 70 12 0 11 3 -3 17 -13 13 -23 15 -49 7 -18 -6 -44 -7 -58 -3 -23 6 -23
7 -3 8 26 1 35 12 24 30 -7 11 -10 11 -16 0 -7 -10 -10 -9 -15 5 -3 9 -9 14
-13 10z"/>
<path d="M2462 918 c-21 -21 -14 -58 13 -70 14 -6 25 -17 25 -25 0 -11 -5 -11
-20 -3 -16 8 -20 8 -20 -3 0 -25 26 -40 49 -27 28 14 26 41 -4 70 -16 15 -23
30 -20 41 7 22 -8 32 -23 17z"/>
<path d="M2587 833 c-13 -12 -7 -23 12 -23 17 0 19 -5 14 -34 -6 -41 11 -76
38 -76 26 0 48 45 30 63 -9 9 -13 7 -17 -11 -10 -35 -27 -26 -20 11 9 48 -31
97 -57 70z"/>
<path d="M2377 823 c-15 -14 -6 -33 14 -30 41 4 30 -20 -11 -26 -65 -8 -92
-47 -55 -77 15 -13 17 -10 19 25 1 16 7 19 27 17 17 -2 37 6 55 21 25 22 27
27 16 51 -11 25 -49 36 -65 19z"/>
<path d="M2240 793 c0 -5 5 -14 12 -21 9 -9 5 -19 -20 -45 -37 -38 -40 -57
-13 -81 24 -22 71 -6 71 24 0 23 -10 26 -28 8 -25 -25 -23 2 3 36 32 42 31 79
-2 84 -13 2 -23 -1 -23 -5z"/>
<path d="M1405 870 c-4 -7 -3 -16 3 -22 13 -13 54 0 49 15 -5 16 -43 21 -52 7z"/>
<path d="M2183 3078 c2 -7 12 -12 21 -12 9 1 16 -2 16 -6 0 -8 57 -24 78 -21
6 1 12 -2 12 -7 0 -5 10 -12 23 -15 27 -6 130 -50 137 -58 3 -4 30 -19 60 -35
30 -16 59 -35 63 -41 4 -7 13 -13 18 -13 6 0 17 -6 24 -12 33 -30 45 -38 54
-38 5 0 11 -7 15 -15 3 -8 11 -15 18 -15 7 -1 24 -14 38 -30 13 -17 30 -30 37
-30 7 0 13 -5 13 -10 0 -6 20 -31 45 -56 25 -24 45 -48 45 -53 0 -5 7 -11 15
-15 8 -3 15 -10 15 -16 0 -6 6 -18 13 -25 29 -33 37 -45 37 -55 0 -5 4 -10 8
-10 4 0 21 -26 37 -57 17 -32 33 -59 38 -61 4 -2 7 -8 7 -13 0 -5 14 -37 30
-71 17 -34 30 -67 30 -75 0 -7 4 -13 8 -13 5 0 9 -6 10 -12 0 -7 9 -47 20 -88
10 -41 25 -105 32 -142 9 -43 19 -68 27 -68 7 0 13 3 13 6 0 26 -54 242 -63
253 -7 8 -11 16 -10 17 5 8 -10 65 -18 70 -5 3 -9 14 -9 25 0 10 -5 19 -11 19
-5 0 -8 4 -4 9 3 5 0 15 -7 23 -7 7 -14 20 -16 28 -2 8 -8 17 -13 18 -5 2 -9
10 -9 18 0 13 -18 52 -30 64 -10 10 -31 45 -36 63 -4 9 -10 17 -15 17 -5 0 -9
7 -9 15 0 9 -7 18 -15 21 -8 4 -15 10 -15 15 0 6 -13 23 -30 39 -16 16 -30 32
-30 35 0 10 -139 145 -149 145 -5 0 -11 7 -15 15 -3 8 -12 15 -21 15 -8 0 -15
7 -15 15 0 8 -6 15 -14 15 -8 0 -16 7 -20 15 -3 8 -12 15 -21 15 -8 0 -15 3
-15 8 0 7 -30 25 -62 38 -10 3 -18 10 -18 15 0 5 -9 9 -20 9 -11 0 -20 4 -20
9 0 12 -60 42 -70 36 -4 -3 -11 2 -14 11 -4 9 -13 14 -21 10 -8 -3 -15 -1 -15
4 0 6 -9 10 -20 10 -11 0 -20 5 -20 10 0 6 -10 10 -23 10 -13 0 -27 4 -32 9
-9 7 -92 31 -110 31 -4 0 -5 -6 -2 -12z"/>
<path d="M1740 2960 c0 -23 15 -27 23 -6 3 8 -1 17 -9 20 -9 4 -14 -1 -14 -14z"/>
<path d="M1780 2961 c0 -16 8 -19 50 -19 39 -1 50 3 50 15 0 11 -8 14 -30 11
-16 -3 -30 -1 -30 4 0 4 -9 8 -20 8 -13 0 -20 -7 -20 -19z"/>
<path d="M1890 2959 c0 -11 10 -18 30 -21 23 -4 30 -1 30 13 0 11 -10 18 -30
21 -23 4 -30 1 -30 -13z"/>
<path d="M1630 2959 c-92 -25 -170 -52 -170 -60 0 -5 -6 -9 -14 -9 -25 0 -129
-59 -175 -98 -41 -35 -43 -39 -30 -60 12 -20 12 -24 -3 -33 -10 -6 -18 -18
-18 -27 0 -12 -2 -14 -8 -4 -7 9 -13 8 -26 -7 -26 -29 -11 -46 22 -25 50 31
74 63 66 86 -6 21 -6 21 10 5 19 -18 41 -13 72 17 41 40 74 64 74 55 0 -6 5
-7 10 -4 6 3 10 14 10 24 0 29 52 71 88 71 22 0 32 -5 32 -15 0 -17 25 -20 35
-5 4 6 11 8 16 5 5 -4 12 1 16 10 3 10 0 21 -7 25 -8 5 4 10 31 15 54 9 60 12
52 30 -6 17 -31 18 -83 4z m-20 -59 c0 -5 -2 -10 -4 -10 -3 0 -8 5 -11 10 -3
6 -1 10 4 10 6 0 11 -4 11 -10z m-180 -70 c0 -9 -70 -33 -77 -26 -4 3 1 6 9 6
9 0 21 6 27 13 11 14 41 19 41 7z m-80 -60 c0 -5 -7 -7 -15 -4 -8 4 -12 10 -9
15 6 11 24 2 24 -11z"/>
<path d="M1967 2963 c-18 -18 -2 -31 51 -43 54 -11 58 -14 54 -36 -3 -19 0
-24 17 -24 13 0 21 -6 21 -17 0 -13 -3 -14 -12 -5 -17 17 -38 15 -38 -3 0 -13
6 -17 26 -14 3 0 11 -7 18 -17 15 -20 36 -11 36 16 0 10 5 20 12 22 21 7 0 41
-22 35 -11 -3 -20 -1 -20 5 0 12 82 0 96 -14 3 -4 12 -4 20 -1 8 3 14 0 14 -6
0 -6 6 -11 13 -11 6 0 21 -7 32 -16 19 -14 19 -15 -2 -11 -11 1 -28 9 -37 17
-13 10 -19 11 -29 1 -9 -10 -8 -15 7 -26 10 -8 23 -12 27 -9 18 11 8 -9 -13
-26 -22 -18 -22 -19 -4 -26 12 -5 23 -2 30 8 6 9 20 17 31 20 13 2 19 11 18
23 -1 11 2 26 7 35 7 14 -1 21 -43 39 -76 34 -169 62 -184 57 -7 -3 -13 -2
-13 2 0 4 -20 13 -45 20 -52 14 -59 14 -68 5z"/>
<path d="M1703 2915 c-3 -9 -3 -18 0 -22 10 -10 37 6 37 22 0 20 -29 20 -37 0z"/>
<path d="M1757 2923 c-14 -13 -6 -33 13 -33 13 0 20 7 20 20 0 19 -20 27 -33
13z"/>
<path d="M1840 2910 c0 -11 6 -20 14 -20 8 0 21 -3 29 -6 9 -3 16 3 20 17 8
31 -1 38 -19 15 -12 -17 -14 -18 -14 -3 0 9 -7 17 -15 17 -8 0 -15 -9 -15 -20z"/>
<path d="M1920 2900 c0 -13 5 -18 15 -14 8 4 15 12 15 20 0 8 -7 14 -15 14 -8
0 -15 -9 -15 -20z"/>
<path d="M1958 2888 c-2 -19 -8 -22 -35 -20 -25 3 -33 0 -33 -12 0 -9 8 -16
19 -16 10 0 33 -3 50 -6 24 -5 31 -3 31 10 0 9 -6 16 -12 16 -8 1 -5 6 6 15
19 14 14 35 -9 35 -7 0 -15 -10 -17 -22z"/>
<path d="M2017 2903 c-16 -15 -6 -33 18 -33 28 0 34 24 9 34 -19 7 -19 7 -27
-1z"/>
<path d="M1686 2871 c-3 -4 -17 -6 -32 -3 -20 4 -25 1 -22 -9 3 -8 13 -13 22
-13 9 1 16 -2 16 -7 0 -10 33 -12 42 -3 8 7 -3 44 -13 44 -4 0 -10 -4 -13 -9z"/>
<path d="M1737 2873 c-14 -13 -6 -33 13 -33 13 0 20 7 20 20 0 19 -20 27 -33
13z"/>
<path d="M1790 2860 c0 -21 16 -26 39 -11 18 11 5 31 -20 31 -12 0 -19 -7 -19
-20z"/>
<path d="M1850 2860 c0 -11 7 -20 15 -20 8 0 15 9 15 20 0 11 -7 20 -15 20 -8
0 -15 -9 -15 -20z"/>
<path d="M1487 2864 c-10 -10 4 -34 22 -35 10 0 11 -2 4 -6 -15 -6 -17 -33 -3
-33 6 0 10 -11 10 -25 0 -15 6 -25 14 -25 22 0 27 15 12 36 -11 14 -11 22 -3
32 8 10 7 16 -2 21 -7 5 -12 11 -12 15 3 20 -1 26 -17 26 -10 0 -21 -3 -25 -6z"/>
<path d="M1595 2850 c-3 -5 -12 -7 -19 -4 -18 7 -27 -8 -17 -25 7 -11 14 -10
35 4 26 17 34 35 17 35 -6 0 -12 -4 -16 -10z"/>
<path d="M2017 2846 c-7 -16 1 -26 20 -26 7 0 13 9 13 20 0 23 -25 27 -33 6z"/>
<path d="M2167 2846 c-6 -16 19 -30 28 -16 7 11 -2 30 -15 30 -4 0 -10 -6 -13
-14z"/>
<path d="M2332 2838 c-13 -13 2 -38 23 -38 7 0 29 -13 50 -30 20 -16 41 -27
46 -24 5 3 9 0 9 -6 0 -7 25 -36 55 -65 30 -29 55 -57 55 -62 0 -6 11 -19 25
-29 14 -10 25 -24 25 -31 0 -7 5 -13 10 -13 6 0 10 -6 10 -13 0 -7 9 -23 20
-35 11 -12 20 -26 20 -32 0 -7 6 -7 21 1 l22 11 -27 23 c-14 12 -23 25 -20 28
6 6 -34 69 -48 75 -4 2 -8 8 -8 14 0 14 -65 78 -79 78 -6 0 -11 7 -11 15 0 8
-4 15 -10 15 -5 0 -10 7 -10 15 0 8 -6 15 -14 15 -7 0 -20 10 -29 23 -8 12
-32 30 -53 41 -22 10 -46 22 -55 26 -10 5 -21 4 -27 -2z"/>
<path d="M1744 2819 c-9 -15 12 -33 30 -26 9 4 16 13 16 22 0 17 -35 21 -46 4z"/>
<path d="M1827 2823 c-4 -3 -7 -12 -7 -20 0 -20 28 -15 40 7 9 17 8 20 -8 20
-10 0 -22 -3 -25 -7z"/>
<path d="M1893 2823 c-18 -6 -16 -33 1 -33 15 0 30 27 18 33 -4 3 -13 2 -19 0z"/>
<path d="M1680 2799 c0 -25 33 -22 38 4 2 12 -3 17 -17 17 -15 0 -21 -6 -21
-21z"/>
<path d="M1957 2813 c-13 -13 -7 -21 24 -32 41 -14 39 -14 39 8 0 11 -9 21
-22 25 -29 7 -33 7 -41 -1z"/>
<path d="M2146 2804 c-9 -23 -8 -24 14 -24 13 0 20 7 20 20 0 24 -25 27 -34 4z"/>
<path d="M1630 2790 c0 -13 7 -20 20 -20 13 0 20 7 20 20 0 13 -7 20 -20 20
-13 0 -20 -7 -20 -20z"/>
<path d="M1460 2785 c0 -8 5 -15 10 -15 6 0 10 7 10 15 0 8 -4 15 -10 15 -5 0
-10 -7 -10 -15z"/>
<path d="M1560 2781 c0 -11 4 -22 8 -25 14 -9 35 12 29 28 -9 23 -37 20 -37
-3z"/>
<path d="M2190 2785 c-7 -9 -10 -18 -7 -21 10 -11 37 5 37 21 0 19 -14 19 -30
0z"/>
<path d="M2067 2783 c-4 -3 -7 -10 -7 -14 0 -11 69 -32 85 -25 9 3 15 -1 15
-9 0 -8 9 -15 19 -15 11 0 23 -5 26 -10 8 -13 25 -3 25 16 0 8 -7 14 -15 14
-9 0 -27 7 -40 16 -14 9 -34 14 -45 11 -13 -3 -20 0 -20 9 0 14 -31 20 -43 7z"/>
<path d="M2320 2776 c0 -14 29 -31 38 -22 2 3 2 12 -1 21 -8 19 -37 20 -37 1z"/>
<path d="M1420 2765 c0 -8 5 -15 10 -15 6 0 10 7 10 15 0 8 -4 15 -10 15 -5 0
-10 -7 -10 -15z"/>
<path d="M1382 2744 c1 -9 9 -19 16 -22 9 -3 13 2 10 14 -1 9 -9 19 -16 22 -9
3 -13 -2 -10 -14z"/>
<path d="M1477 2753 c-4 -3 -7 -15 -7 -25 0 -26 24 -17 28 10 3 21 -8 29 -21
15z"/>
<path d="M2270 2752 c0 -4 6 -20 13 -35 15 -33 42 -37 33 -4 -3 12 -6 28 -6
35 0 6 -9 12 -20 12 -11 0 -20 -4 -20 -8z"/>
<path d="M2372 2733 c4 -20 18 -26 37 -14 18 12 5 31 -20 31 -14 0 -19 -6 -17
-17z"/>
<path d="M1194 2728 c-106 -96 -165 -162 -161 -178 3 -12 -2 -20 -15 -23 -21
-6 -20 -34 1 -30 16 4 14 -22 -4 -37 -20 -16 -19 -26 4 -49 27 -27 61 -36 61
-17 0 9 6 25 13 37 10 17 9 22 -5 30 -10 6 -18 18 -18 29 0 10 -5 20 -10 22
-14 4 12 58 40 83 19 18 20 17 20 -3 0 -28 21 -28 38 -1 11 18 11 21 -6 25
-15 5 -11 13 31 54 27 27 46 53 42 59 -8 13 -17 13 -31 -1z m-124 -288 c0 -11
-7 -20 -15 -20 -8 0 -15 9 -15 20 0 11 7 20 15 20 8 0 15 -9 15 -20z"/>
<path d="M1407 2714 c-30 -16 -31 -37 -2 -43 12 -2 16 2 12 11 -3 10 2 14 16
14 13 -1 23 6 25 17 4 21 -14 21 -51 1z"/>
<path d="M2235 2710 c-8 -14 3 -30 21 -30 8 0 14 9 14 20 0 21 -24 28 -35 10z"/>
<path d="M2425 2710 c-4 -6 5 -23 19 -37 21 -21 28 -23 41 -13 13 11 12 15 -8
36 -24 26 -42 30 -52 14z"/>
<path d="M2335 2700 c-8 -13 14 -52 26 -45 15 10 11 55 -5 55 -8 0 -18 -4 -21
-10z"/>
<path d="M1303 2660 c0 -44 7 -53 31 -44 21 8 20 30 0 42 -11 6 -13 11 -5 16
17 11 13 26 -8 26 -15 0 -18 -8 -18 -40z"/>
<path d="M1352 2681 c-9 -6 -9 -11 2 -27 14 -18 15 -18 22 -1 8 22 -6 39 -24
28z"/>
<path d="M2390 2675 c-6 -8 -9 -18 -6 -23 3 -6 -3 -12 -14 -15 -14 -3 -18 -10
-14 -22 9 -21 38 -15 42 9 2 11 10 26 18 34 14 13 11 32 -5 32 -5 0 -14 -7
-21 -15z"/>
<path d="M2277 2674 c-11 -12 3 -24 29 -24 16 0 24 5 22 13 -5 13 -40 22 -51
11z"/>
<path d="M2424 2646 c-9 -24 12 -44 28 -28 10 10 8 16 -5 29 -15 15 -17 15
-23 -1z"/>
<path d="M2494 2644 c3 -9 6 -18 6 -20 0 -3 5 -2 10 1 16 10 12 35 -6 35 -11
0 -14 -5 -10 -16z"/>
<path d="M1234 2639 c-8 -14 11 -33 25 -25 6 4 11 14 11 22 0 16 -26 19 -36 3z"/>
<path d="M2524 2626 c-4 -11 0 -24 9 -34 15 -14 17 -14 23 2 4 11 0 24 -9 34
-15 14 -17 14 -23 -2z"/>
<path d="M2459 2608 c-1 -7 -1 -16 0 -20 2 -14 -11 -9 -24 9 -7 9 -19 14 -29
10 -22 -9 -20 -28 4 -34 11 -3 20 -9 20 -15 0 -5 15 -23 33 -40 17 -18 31 -35
30 -38 -2 -3 5 -5 14 -5 25 0 28 26 4 32 -12 3 -21 12 -21 19 0 8 -7 14 -15
14 -21 0 -19 24 5 45 11 10 17 22 14 26 -8 13 -34 11 -35 -3z"/>
<path d="M1240 2585 c-7 -8 -10 -21 -6 -30 8 -22 36 -6 36 21 0 27 -12 31 -30
9z"/>
<path d="M1177 2583 c-12 -11 -8 -23 7 -23 8 0 16 7 20 15 5 15 -14 21 -27 8z"/>
<path d="M2496 2572 c-7 -12 10 -35 22 -28 6 4 8 -2 5 -14 -3 -13 0 -20 9 -20
7 0 14 -10 15 -21 3 -30 11 -35 29 -18 15 15 10 49 -7 49 -5 0 -9 4 -9 10 0
28 -51 62 -64 42z"/>
<path d="M1085 2561 c-7 -12 12 -24 25 -16 11 7 4 25 -10 25 -5 0 -11 -4 -15
-9z"/>
<path d="M1176 2528 c-6 -21 -7 -21 -17 -5 -12 20 -39 23 -39 5 0 -13 53 -48
72 -48 6 0 8 11 6 25 -3 14 -1 25 3 25 5 0 9 5 9 10 0 20 -28 10 -34 -12z"/>
<path d="M2584 2539 c-10 -17 13 -36 27 -22 12 12 4 33 -11 33 -5 0 -12 -5
-16 -11z"/>
<path d="M1080 2495 c0 -9 9 -15 23 -15 12 0 28 -9 35 -20 13 -22 32 -19 32 6
0 8 -9 14 -19 14 -10 0 -21 7 -25 15 -3 8 -15 15 -26 15 -11 0 -20 -7 -20 -15z"/>
<path d="M2606 2501 c-11 -18 6 -41 30 -41 27 0 28 3 14 31 -11 20 -35 25 -44
10z"/>
<path d="M974 2475 c-3 -14 -10 -25 -15 -25 -5 0 -9 -13 -9 -29 0 -16 -6 -31
-14 -34 -8 -3 -17 -19 -21 -36 -4 -17 -11 -31 -17 -31 -6 0 -8 -11 -6 -25 3
-13 2 -22 -3 -20 -16 11 -34 -102 -18 -121 6 -8 4 -14 -6 -18 -10 -3 -15 -15
-14 -28 2 -13 1 -27 -3 -33 -6 -11 -12 -93 -10 -137 2 -21 7 -28 22 -28 16 0
19 6 18 38 -3 62 5 142 14 142 4 0 8 -7 8 -16 0 -11 6 -15 20 -11 13 3 20 0
20 -8 0 -8 -10 -15 -22 -17 -28 -4 -31 -33 -3 -33 23 0 46 -35 33 -49 -4 -6
-8 -21 -8 -34 0 -19 4 -23 20 -19 21 5 34 -7 35 -33 0 -21 34 -25 42 -4 4 10
2 19 -5 22 -7 2 -10 13 -6 28 7 26 -13 33 -34 12 -9 -9 -12 -7 -12 13 -1 13
-2 52 -3 85 -3 60 -3 61 14 40 14 -16 20 -18 30 -9 16 16 4 43 -21 43 -16 0
-20 6 -19 33 1 17 3 24 6 15 7 -28 43 -23 43 6 0 19 -6 25 -32 29 -18 2 -37 2
-43 -1 -5 -4 -16 -7 -24 -7 -7 0 -17 -10 -22 -22 -6 -17 -3 -23 21 -33 23 -9
26 -15 17 -25 -9 -10 -14 -9 -23 3 -6 8 -16 12 -22 8 -7 -4 -12 -1 -12 6 0 17
25 132 40 180 6 21 11 41 12 45 1 5 7 14 15 21 7 7 18 32 24 55 6 23 16 45 21
48 13 8 3 39 -11 39 -6 0 -13 -11 -17 -25z m-19 -324 c3 -5 1 -12 -5 -16 -5
-3 -10 1 -10 9 0 18 6 21 15 7z"/>
<path d="M2511 2456 c-9 -10 -9 -16 -1 -21 13 -8 42 14 34 26 -8 13 -20 11
-33 -5z"/>
<path d="M2572 2444 c2 -11 11 -20 22 -22 13 -3 17 1 14 14 -2 11 -11 20 -22
22 -13 3 -17 -1 -14 -14z"/>
<path d="M2707 2453 c-4 -3 -7 -14 -7 -24 0 -12 -5 -16 -15 -13 -8 4 -15 13
-15 21 0 8 -7 13 -17 11 -22 -4 -29 -28 -9 -28 9 0 16 -6 16 -14 0 -7 7 -19
15 -26 8 -7 12 -16 9 -22 -3 -5 -1 -14 4 -21 5 -7 12 -21 14 -32 2 -13 11 -20
27 -20 13 0 26 -6 29 -14 3 -8 0 -11 -7 -7 -6 4 -25 2 -42 -6 -27 -12 -30 -16
-24 -43 4 -16 6 -52 5 -79 -1 -31 4 -52 12 -57 10 -7 10 -9 0 -9 -10 0 -10 -5
-2 -20 21 -40 30 -20 26 63 -2 45 -6 89 -8 97 -2 10 6 16 23 18 35 4 50 -32
50 -120 0 -79 -10 -107 -12 -32 -1 27 -2 54 -4 59 -1 6 -3 18 -3 28 -3 24 -32
22 -32 -2 0 -11 5 -23 10 -26 7 -4 7 -11 2 -18 -12 -16 -14 -87 -2 -87 6 0 10
-9 10 -20 0 -11 5 -20 10 -20 6 0 10 8 10 17 0 29 11 6 14 -29 3 -31 1 -34
-21 -30 -16 3 -23 0 -23 -11 0 -9 10 -18 23 -20 l22 -4 -22 -2 c-17 -1 -23 -7
-23 -26 0 -16 6 -25 15 -25 16 0 18 -27 6 -70 -7 -25 -7 -25 -13 -2 -3 12 -2
22 3 22 5 0 9 9 9 20 0 11 -7 20 -15 20 -8 0 -15 -8 -15 -18 0 -9 -9 -42 -20
-72 -24 -65 -23 -60 -5 -60 8 0 15 7 15 16 0 8 7 22 15 30 19 19 19 17 0 -37
-9 -24 -14 -52 -11 -61 3 -13 -2 -18 -15 -18 -10 0 -19 5 -19 11 0 6 -9 9 -20
6 -22 -6 -25 0 -10 23 9 13 12 13 21 -2 14 -24 29 -23 29 2 0 13 -7 20 -19 20
-10 0 -24 7 -31 15 -7 8 -16 12 -21 9 -5 -3 -9 0 -9 5 0 20 -38 11 -43 -10 -5
-18 -2 -20 19 -16 24 4 34 -15 14 -28 -5 -3 -10 -15 -10 -27 0 -15 5 -19 20
-15 11 3 20 1 20 -4 0 -5 9 -9 20 -9 13 0 18 -5 13 -16 -4 -11 -9 -12 -16 -5
-17 17 -30 13 -24 -9 3 -13 0 -20 -9 -20 -8 0 -14 -9 -14 -20 0 -13 5 -18 15
-14 10 4 15 0 15 -10 0 -9 -6 -19 -14 -22 -8 -3 -37 -41 -66 -84 -41 -64 -64
-88 -120 -125 -39 -26 -70 -51 -70 -56 0 -6 -5 -7 -10 -4 -6 4 -17 2 -24 -4
-10 -9 -15 -7 -19 9 -6 24 -32 27 -41 4 -4 -10 4 -27 20 -44 l27 -27 81 51
c93 58 201 159 193 180 -3 8 2 16 14 19 11 3 25 19 32 36 6 17 16 31 23 31 14
0 100 221 125 320 13 54 18 111 18 205 0 72 0 135 1 140 5 23 -1 35 -17 35
-13 0 -14 3 -5 8 12 8 7 72 -7 72 -3 0 -7 11 -7 24 -1 13 -13 50 -27 82 -14
33 -28 67 -31 77 -6 18 -18 22 -29 10z m27 -110 c5 -17 3 -23 -7 -23 -10 0
-13 8 -9 25 2 15 0 25 -7 25 -7 0 -9 5 -5 11 7 13 17 1 28 -38z"/>
<path d="M1112 2427 c-9 -11 -10 -17 -2 -22 15 -9 23 -1 18 21 -3 15 -4 16
-16 1z"/>
<path d="M2540 2415 c0 -8 5 -15 10 -15 6 0 10 7 10 15 0 8 -4 15 -10 15 -5 0
-10 -7 -10 -15z"/>
<path d="M2569 2398 c-1 -2 -3 -16 -5 -31 -4 -34 23 -49 41 -23 8 11 15 13 20
7 9 -16 25 -13 31 4 10 24 -14 47 -37 34 -13 -6 -19 -6 -19 1 0 8 -28 15 -31
8z"/>
<path d="M1073 2365 c-3 -9 -3 -18 0 -22 10 -10 37 6 37 22 0 20 -29 20 -37 0z"/>
<path d="M966 2354 c-8 -21 -8 -21 13 -27 20 -5 36 17 25 34 -9 14 -31 10 -38
-7z"/>
<path d="M1007 2323 c-21 -60 -21 -63 2 -63 12 0 21 9 25 26 7 24 8 25 20 9
16 -22 36 -12 36 17 0 16 -5 19 -23 16 -20 -4 -23 -1 -19 19 8 43 -23 25 -41
-24z"/>
<path d="M2653 2333 c-18 -6 -16 -33 1 -33 19 0 31 19 20 30 -5 4 -15 5 -21 3z"/>
<path d="M2597 2314 c-10 -10 -9 -42 2 -48 5 -3 14 0 20 7 12 15 -9 54 -22 41z"/>
<path d="M942 2288 c2 -12 11 -24 21 -26 14 -3 18 1 15 20 -2 12 -11 24 -21
26 -14 3 -18 -1 -15 -20z"/>
<path d="M2662 2278 c7 -19 38 -22 38 -4 0 10 -9 16 -21 16 -12 0 -19 -5 -17
-12z"/>
<path d="M606 2264 c-10 -25 -7 -33 13 -44 13 -7 28 -7 45 0 37 14 33 31 -5
23 -29 -5 -31 -4 -24 16 8 25 -19 31 -29 5z"/>
<path d="M2624 2244 c3 -9 6 -18 6 -20 0 -2 7 -4 15 -4 8 0 15 9 15 20 0 14
-7 20 -21 20 -15 0 -19 -4 -15 -16z"/>
<path d="M931 2241 c-8 -5 -11 -15 -8 -23 6 -17 73 -22 83 -7 8 14 -16 31 -33
24 -7 -2 -13 0 -13 5 0 12 -11 12 -29 1z"/>
<path d="M1037 2243 c-13 -13 -7 -32 8 -27 8 4 15 12 15 20 0 15 -12 19 -23 7z"/>
<path d="M2634 2188 c4 -13 9 -32 10 -43 2 -11 4 -23 5 -27 0 -5 8 -8 16 -8
17 0 20 21 4 37 -8 8 -8 13 0 17 6 4 11 16 11 27 0 14 -7 19 -26 19 -23 0 -25
-3 -20 -22z"/>
<path d="M643 2162 c-32 -21 -42 -105 -18 -152 31 -60 78 -18 77 68 0 70 -25
106 -59 84z m27 -67 c0 -37 -13 -47 -24 -19 -8 20 2 54 15 54 5 0 9 -16 9 -35z"/>
<path d="M2976 2132 c5 -34 3 -39 -20 -50 -17 -7 -27 -22 -31 -46 -4 -19 -13
-37 -21 -40 -19 -7 -18 -46 1 -46 8 0 24 5 35 12 15 10 22 9 37 -4 10 -10 24
-14 30 -10 18 11 34 60 23 67 -15 9 -12 45 4 45 16 0 26 -30 26 -77 0 -38 15
-52 24 -20 9 34 7 150 -3 166 -11 18 -31 5 -31 -20 0 -10 -7 -19 -15 -19 -11
0 -15 11 -15 40 0 36 -2 40 -25 40 -24 0 -25 -2 -19 -38z m14 -103 c0 -12 -7
-19 -20 -19 -23 0 -24 4 -9 31 12 23 29 16 29 -12z"/>
<path d="M2653 2059 c-1 -27 2 -39 10 -36 14 5 15 69 1 74 -5 2 -10 -15 -11
-38z"/>
<path d="M2694 2019 c-3 -5 -14 -9 -25 -9 -11 0 -19 -7 -19 -16 0 -12 6 -15
23 -11 21 6 22 4 19 -38 -4 -40 -2 -45 17 -45 12 0 21 6 22 13 0 6 3 33 5 58
4 40 2 47 -16 52 -11 3 -23 1 -26 -4z"/>
<path d="M990 1990 c0 -13 7 -20 20 -20 13 0 20 7 20 20 0 13 -7 20 -20 20
-13 0 -20 -7 -20 -20z"/>
<path d="M890 1955 c0 -15 6 -25 14 -25 19 0 28 14 20 34 -10 25 -34 19 -34
-9z"/>
<path d="M527 1949 c-17 -23 -12 -55 10 -63 8 -3 27 1 43 9 26 14 28 13 35 -8
l8 -22 4 24 c3 12 2 34 -2 48 l-6 24 -31 -27 c-21 -17 -34 -22 -36 -14 -2 6 1
17 7 23 15 15 14 27 -3 27 -8 0 -21 -9 -29 -21z"/>
<path d="M2643 1904 c1 -47 6 -69 16 -72 10 -3 13 2 9 22 -3 14 -2 26 2 26 5
0 7 19 6 42 -2 31 -7 44 -18 46 -14 3 -16 -7 -15 -64z"/>
<path d="M3103 1943 c-14 -5 -18 -43 -5 -43 12 0 32 23 32 37 0 13 -6 15 -27
6z"/>
<path d="M847 1893 c-14 -13 -6 -33 13 -33 13 0 20 7 20 20 0 19 -20 27 -33
13z"/>
<path d="M900 1875 c0 -8 7 -15 15 -15 8 0 15 7 15 15 0 8 -7 15 -15 15 -8 0
-15 -7 -15 -15z"/>
<path d="M943 1874 c-4 -10 -2 -19 4 -21 6 -2 8 -13 6 -25 -5 -18 10 -37 30
-38 9 0 9 44 0 54 -4 4 -8 15 -8 23 0 23 -24 28 -32 7z"/>
<path d="M2690 1870 c0 -13 7 -20 20 -20 13 0 20 7 20 20 0 13 -7 20 -20 20
-13 0 -20 -7 -20 -20z"/>
<path d="M3062 1874 c-6 -11 -10 -28 -9 -39 1 -11 -5 -21 -14 -23 -12 -2 -18
7 -23 32 -8 43 -18 45 -45 9 l-20 -28 -25 30 c-34 40 -46 22 -46 -72 0 -58 3
-73 15 -73 11 0 15 12 15 45 0 25 5 45 10 45 6 0 10 -15 10 -33 0 -19 3 -37 7
-40 9 -10 34 13 27 25 -9 14 6 62 16 52 5 -5 10 -25 12 -44 4 -47 32 -48 36
-2 4 45 26 36 30 -12 6 -66 27 -36 30 42 3 81 -8 119 -26 86z"/>
<path d="M572 1832 c10 -25 8 -32 -10 -50 -21 -21 -35 -63 -46 -139 -7 -51 4
-55 36 -13 27 37 34 38 41 1 5 -24 11 -29 34 -28 15 1 31 6 35 12 5 6 12 5 20
-3 20 -20 55 -15 62 11 9 34 7 83 -4 112 -12 32 -39 30 -56 -4 l-12 -24 -4 24
c-5 40 -23 27 -28 -21 -5 -43 -6 -42 -12 25 -3 38 -4 73 -1 77 2 5 17 8 32 8
15 0 35 6 46 13 16 12 12 15 -36 20 -30 4 -66 7 -81 7 -25 0 -26 -2 -16 -28z
m18 -93 c0 -25 -17 -59 -30 -59 -13 0 -13 22 0 54 11 31 30 34 30 5z m130 -65
c0 -34 -13 -46 -23 -21 -7 19 4 68 14 61 5 -3 9 -21 9 -40z"/>
<path d="M867 1834 c-9 -10 -9 -84 1 -84 4 0 8 -17 8 -38 1 -22 15 -62 32 -93
16 -30 38 -75 47 -101 10 -27 22 -48 26 -48 5 0 9 -7 9 -15 0 -8 4 -15 10 -15
5 0 17 -16 26 -36 9 -20 25 -41 36 -47 10 -7 18 -16 18 -20 0 -5 9 -19 20 -31
10 -11 28 -32 38 -45 21 -27 47 -20 39 10 -3 12 0 19 8 19 21 0 28 19 15 35
-17 21 -28 19 -32 -6 -3 -19 -6 -18 -40 17 -58 60 -88 100 -88 118 0 9 -5 16
-10 16 -6 0 -21 25 -35 56 -29 65 -28 64 -14 64 5 0 8 -4 5 -9 -3 -4 1 -17 9
-27 14 -17 16 -17 28 -3 14 18 37 14 37 -7 0 -8 4 -14 9 -14 5 0 12 -11 15
-25 4 -14 11 -25 16 -25 6 0 10 -5 10 -11 0 -6 6 -17 14 -25 8 -7 16 -19 18
-26 4 -10 10 -10 32 1 24 14 28 13 42 -7 8 -12 21 -22 29 -22 21 0 30 22 13
34 -8 6 -17 19 -21 29 -3 9 -10 17 -16 17 -5 0 -11 9 -14 20 -5 21 -31 27 -42
10 -3 -5 -3 -16 2 -22 4 -7 8 -19 9 -26 2 -10 -1 -11 -12 -1 -8 6 -14 18 -14
25 0 8 -4 14 -10 14 -18 0 -10 22 10 27 22 6 28 43 8 43 -22 0 -41 -17 -34
-29 4 -7 1 -9 -8 -5 -8 3 -22 21 -31 40 -9 19 -23 34 -32 34 -10 0 -13 6 -9
16 3 9 6 20 6 25 0 5 7 9 15 9 15 0 21 31 8 44 -5 4 -9 12 -9 17 -1 5 -2 14
-3 19 0 6 -12 10 -25 10 -13 0 -26 5 -28 12 -3 9 -15 7 -44 -6 -49 -23 -46
-20 -39 -38 6 -16 45 -13 45 3 0 5 6 6 14 3 8 -3 13 -11 10 -19 -3 -7 1 -19 8
-26 7 -8 14 -21 15 -29 1 -8 5 -26 9 -40 5 -17 3 -22 -4 -15 -5 6 -12 19 -14
30 -2 12 -11 20 -23 20 -14 0 -19 -6 -17 -17 2 -11 -3 -18 -14 -18 -10 0 -15
3 -11 6 3 3 2 16 -3 28 -4 13 -15 45 -23 72 l-15 50 31 -4 c26 -4 29 -2 22 14
-4 11 -10 31 -13 47 -5 29 -29 37 -38 12 -6 -14 -8 -14 -18 0 -6 9 -15 13 -19
9z m158 -114 c3 -5 1 -10 -4 -10 -6 0 -11 5 -11 10 0 6 2 10 4 10 3 0 8 -4 11
-10z m18 -40 c3 -11 1 -20 -4 -20 -5 0 -9 9 -9 20 0 11 2 20 4 20 2 0 6 -9 9
-20z"/>
<path d="M2685 1828 c-7 -24 0 -71 11 -75 10 -3 24 39 24 73 0 17 -29 18 -35
2z"/>
<path d="M1017 1799 c-14 -8 -15 -14 -6 -31 10 -18 13 -19 26 -5 21 21 5 50
-20 36z"/>
<path d="M2624 1785 c-8 -19 2 -45 16 -45 5 0 10 14 10 30 0 31 -16 41 -26 15z"/>
<path d="M2660 1736 c0 -10 9 -16 21 -16 24 0 21 23 -4 28 -10 2 -17 -3 -17
-12z"/>
<path d="M945 1680 c-10 -16 16 -43 28 -31 11 11 2 41 -12 41 -5 0 -13 -5 -16
-10z"/>
<path d="M2575 1670 c-8 -13 3 -30 20 -30 11 0 25 20 25 36 0 9 -39 4 -45 -6z"/>
<path d="M2826 1658 c-25 -14 -19 -28 14 -28 26 0 30 -4 30 -27 0 -34 9 -47
35 -57 18 -7 17 -9 -10 -20 -30 -12 -30 -14 -40 -117 -9 -96 -12 -104 -32
-107 -12 -2 -27 -10 -33 -18 -10 -12 -7 -14 18 -14 17 0 42 4 56 10 25 9 26
12 26 99 0 97 5 121 25 121 18 0 45 28 45 45 0 8 -12 20 -27 27 -43 20 -41 44
4 55 21 5 39 15 41 23 2 12 -12 15 -67 16 -38 1 -76 -3 -85 -8z"/>
<path d="M1080 1615 c0 -14 7 -28 15 -32 22 -8 28 2 21 32 -8 33 -36 33 -36 0z"/>
<path d="M2553 1624 c-8 -21 13 -42 28 -27 13 13 5 43 -11 43 -6 0 -13 -7 -17
-16z"/>
<path d="M3073 1605 c-14 -10 -24 -12 -28 -5 -9 14 -48 13 -63 -2 -7 -7 -12
-29 -12 -49 0 -44 31 -74 60 -59 23 13 51 -18 44 -47 -4 -12 1 -32 10 -45 22
-30 20 -55 -4 -68 -26 -14 -26 -30 0 -23 42 11 63 72 38 112 -9 14 -8 23 5 42
24 33 21 49 -7 49 -16 0 -27 7 -31 20 -7 24 9 58 19 41 11 -17 26 -13 26 7 0
17 -18 42 -30 42 -3 0 -15 -7 -27 -15z m-43 -49 c0 -14 -5 -28 -11 -32 -17
-10 -32 12 -24 35 9 29 35 27 35 -3z"/>
<path d="M677 1579 c-27 -16 -47 -64 -47 -114 0 -37 5 -52 28 -74 15 -15 27
-36 27 -45 0 -12 12 -22 35 -30 40 -12 39 -32 -1 -28 -34 4 -61 -23 -57 -57 3
-24 7 -26 48 -27 34 0 56 -8 93 -34 39 -28 57 -34 98 -35 45 0 54 4 73 28 19
26 19 30 5 55 -16 28 -39 38 -67 27 -14 -5 -10 -9 16 -20 33 -15 40 -33 20
-53 -26 -26 -115 -5 -152 36 -14 16 -17 30 -13 58 8 47 -7 74 -38 74 -29 0
-33 16 -7 24 26 9 62 44 62 61 0 10 -10 15 -29 15 -23 0 -30 5 -33 22 -5 38
-28 33 -28 -6 0 -25 -5 -36 -15 -36 -19 0 -30 62 -18 103 10 35 41 48 55 23
10 -18 28 -22 28 -6 0 14 -38 50 -52 50 -7 0 -21 -5 -31 -11z m63 -183 c0 -2
-7 -7 -16 -10 -8 -3 -12 -2 -9 4 6 10 25 14 25 6z m-10 -156 c0 -21 -16 -26
-39 -11 -18 11 -5 31 20 31 12 0 19 -7 19 -20z"/>
<path d="M2592 1578 c-18 -18 -14 -38 8 -38 13 0 20 7 20 19 0 25 -13 34 -28
19z"/>
<path d="M2512 1557 c-14 -17 2 -42 22 -34 20 8 20 21 2 36 -10 8 -16 8 -24
-2z"/>
<path d="M1017 1533 c-3 -5 -2 -15 3 -22 10 -17 43 -6 38 12 -6 15 -34 22 -41
10z"/>
<path d="M2554 1526 c-3 -9 -12 -16 -20 -16 -16 0 -19 -36 -4 -45 11 -7 55 41
55 59 0 17 -25 18 -31 2z"/>
<path d="M2452 1491 c-22 -30 -20 -41 9 -41 9 0 20 -7 23 -16 4 -10 13 -13 26
-9 11 4 20 2 20 -4 0 -20 26 -11 53 17 31 32 35 55 10 50 -10 -2 -18 -12 -17
-24 0 -14 -6 -20 -23 -19 -13 0 -27 6 -32 13 -4 7 -15 10 -24 6 -22 -8 -22 5
0 21 17 13 10 35 -11 35 -7 0 -22 -13 -34 -29z"/>
<path d="M2921 1476 c-17 -21 -10 -91 9 -91 11 0 16 13 18 44 4 49 -8 70 -27
47z"/>
<path d="M1055 1460 c-8 -13 3 -30 20 -30 20 0 30 21 14 31 -18 11 -26 11 -34
-1z"/>
<path d="M2393 1424 c-7 -19 4 -31 40 -39 21 -6 27 -4 27 9 0 9 -7 16 -15 16
-8 0 -15 7 -15 15 0 20 -29 19 -37 -1z"/>
<path d="M1090 1420 c-13 -8 -13 -11 0 -24 21 -21 45 -6 27 17 -8 12 -16 14
-27 7z"/>
<path d="M2494 1396 c-8 -21 3 -36 27 -36 15 0 20 6 17 22 -4 27 -35 37 -44
14z"/>
<path d="M1264 1385 c-3 -8 -3 -19 0 -24 9 -14 56 8 56 26 0 18 -49 17 -56 -2z"/>
<path d="M2344 1389 c-3 -6 -2 -15 4 -21 13 -13 32 -2 32 18 0 16 -26 19 -36
3z"/>
<path d="M1180 1380 c0 -6 -10 -8 -24 -4 -27 7 -43 -18 -21 -36 10 -8 16 -7
23 5 8 15 12 15 31 4 11 -8 24 -22 27 -31 6 -20 29 -24 39 -7 4 5 0 18 -9 28
-9 10 -16 25 -16 34 0 11 -8 17 -25 17 -14 0 -25 -5 -25 -10z"/>
<path d="M1323 1354 c-3 -8 -12 -13 -19 -10 -19 7 -28 -12 -14 -30 9 -10 16
-11 25 -4 10 8 15 8 20 0 4 -7 18 -9 31 -6 14 4 24 2 24 -4 0 -5 6 -10 14 -10
7 0 16 -9 19 -20 3 -11 12 -20 20 -20 8 0 17 -9 20 -20 6 -24 23 -26 31 -4 4
11 -1 18 -14 21 -11 3 -20 14 -20 24 0 11 -6 19 -14 19 -7 0 -16 10 -19 21 -4
16 -11 20 -26 16 -14 -3 -25 3 -36 19 -18 28 -33 31 -42 8z"/>
<path d="M2300 1355 c0 -8 6 -15 14 -15 8 0 16 7 20 15 4 10 -1 15 -14 15 -11
0 -20 -7 -20 -15z"/>
<path d="M2457 1356 c-8 -19 15 -37 32 -26 17 10 7 40 -13 40 -7 0 -16 -6 -19
-14z"/>
<path d="M2350 1340 c0 -5 -6 -10 -13 -10 -8 0 -23 -11 -36 -23 -19 -21 -20
-25 -6 -37 12 -10 16 -9 21 4 3 9 12 16 20 16 8 0 14 7 14 15 0 8 3 14 8 14
20 -3 32 2 32 16 0 8 -9 15 -20 15 -11 0 -20 -4 -20 -10z"/>
<path d="M2422 1318 c2 -12 10 -23 18 -23 22 0 19 39 -3 43 -15 3 -18 -1 -15
-20z"/>
<path d="M2243 1313 c-18 -6 -16 -33 1 -33 15 0 30 27 18 33 -4 3 -13 2 -19 0z"/>
<path d="M2374 1296 c-3 -9 -12 -16 -19 -16 -16 0 -28 -27 -15 -35 11 -7 40 5
40 16 0 5 7 9 16 9 9 0 14 7 12 17 -4 22 -27 28 -34 9z"/>
<path d="M1224 1275 c-4 -8 -13 -15 -20 -15 -23 0 -27 -26 -9 -54 10 -15 22
-23 31 -19 8 3 14 2 13 -3 -4 -23 3 -34 21 -34 11 0 23 6 26 14 3 8 13 12 25
9 13 -4 19 0 19 11 0 19 -32 35 -37 19 -2 -5 -15 -8 -28 -5 -14 2 -22 8 -19
13 3 5 -2 9 -10 9 -9 0 -13 6 -10 14 4 12 10 10 26 -6 l21 -21 24 29 c28 36
29 54 3 54 -11 0 -20 -7 -20 -15 0 -8 -7 -15 -15 -15 -9 0 -12 6 -9 15 4 10 0
15 -10 15 -9 0 -19 -7 -22 -15z"/>
<path d="M1354 1276 c-7 -19 3 -36 22 -36 10 0 14 8 12 22 -4 26 -26 36 -34
14z"/>
<path d="M2165 1279 c-4 -6 -4 -13 -1 -16 8 -8 36 5 36 17 0 13 -27 13 -35 -1z"/>
<path d="M2256 1271 c-9 -14 5 -42 18 -38 15 5 14 39 -1 44 -6 2 -14 0 -17 -6z"/>
<path d="M1314 1245 c-7 -18 3 -35 21 -35 18 0 26 25 12 39 -15 15 -27 14 -33
-4z"/>
<path d="M1354 1189 c-3 -6 0 -17 7 -25 18 -17 44 -2 36 20 -7 18 -33 21 -43
5z"/>
<path d="M630 1040 c0 -5 11 -10 25 -10 14 0 25 5 25 10 0 6 -11 10 -25 10
-14 0 -25 -4 -25 -10z"/>
<path d="M700 1040 c0 -5 9 -10 20 -10 11 0 20 5 20 10 0 6 -9 10 -20 10 -11
0 -20 -4 -20 -10z"/>
<path d="M750 1040 c0 -5 12 -10 26 -10 14 0 23 4 19 10 -3 6 -15 10 -26 10
-10 0 -19 -4 -19 -10z"/>
<path d="M810 1040 c0 -5 11 -10 25 -10 14 0 25 5 25 10 0 6 -11 10 -25 10
-14 0 -25 -4 -25 -10z"/>
<path d="M870 1040 c0 -5 9 -10 20 -10 11 0 20 5 20 10 0 6 -9 10 -20 10 -11
0 -20 -4 -20 -10z"/>
<path d="M930 1040 c0 -5 9 -10 20 -10 11 0 20 5 20 10 0 6 -9 10 -20 10 -11
0 -20 -4 -20 -10z"/>
<path d="M990 1040 c0 -5 9 -10 20 -10 11 0 20 5 20 10 0 6 -9 10 -20 10 -11
0 -20 -4 -20 -10z"/>
<path d="M1050 1036 c6 -8 18 -12 26 -9 23 9 16 23 -12 23 -22 0 -24 -2 -14
-14z"/>
<path d="M1100 1040 c0 -5 11 -10 25 -10 14 0 25 5 25 10 0 6 -11 10 -25 10
-14 0 -25 -4 -25 -10z"/>
<path d="M1160 1041 c0 -11 26 -22 34 -14 12 12 5 23 -14 23 -11 0 -20 -4 -20
-9z"/>
<path d="M1220 1040 c0 -5 12 -10 26 -10 14 0 23 4 19 10 -3 6 -15 10 -26 10
-10 0 -19 -4 -19 -10z"/>
<path d="M1280 1040 c0 -5 9 -10 20 -10 11 0 20 5 20 10 0 6 -9 10 -20 10 -11
0 -20 -4 -20 -10z"/>
<path d="M1340 1040 c0 -5 9 -10 20 -10 11 0 20 5 20 10 0 6 -9 10 -20 10 -11
0 -20 -4 -20 -10z"/>
<path d="M2420 1040 c0 -5 9 -10 20 -10 11 0 20 5 20 10 0 6 -9 10 -20 10 -11
0 -20 -4 -20 -10z"/>
<path d="M2480 1040 c0 -5 9 -10 20 -10 11 0 20 5 20 10 0 6 -9 10 -20 10 -11
0 -20 -4 -20 -10z"/>
<path d="M2540 1042 c0 -14 11 -21 26 -15 21 8 17 23 -6 23 -11 0 -20 -4 -20
-8z"/>
<path d="M2596 1041 c-7 -11 14 -20 32 -14 6 3 12 9 12 14 0 12 -37 12 -44 0z"/>
<path d="M2650 1040 c0 -5 12 -10 26 -10 14 0 23 4 19 10 -3 6 -15 10 -26 10
-10 0 -19 -4 -19 -10z"/>
<path d="M2710 1041 c0 -16 28 -20 40 -5 10 12 8 14 -14 14 -14 0 -26 -4 -26
-9z"/>
<path d="M2770 1040 c0 -5 9 -10 20 -10 11 0 20 5 20 10 0 6 -9 10 -20 10 -11
0 -20 -4 -20 -10z"/>
<path d="M2830 1040 c0 -5 9 -10 20 -10 11 0 20 5 20 10 0 6 -9 10 -20 10 -11
0 -20 -4 -20 -10z"/>
<path d="M2890 1035 c0 -17 2 -18 24 -9 23 9 20 24 -4 24 -11 0 -20 -7 -20
-15z"/>
<path d="M2950 1040 c0 -5 9 -10 20 -10 11 0 20 5 20 10 0 6 -9 10 -20 10 -11
0 -20 -4 -20 -10z"/>
<path d="M720 979 c0 -14 5 -19 17 -17 26 5 29 38 4 38 -15 0 -21 -6 -21 -21z"/>
<path d="M815 990 c-9 -15 4 -30 26 -30 12 0 19 7 19 20 0 21 -33 29 -45 10z"/>
<path d="M915 990 c-9 -15 4 -30 26 -30 12 0 19 7 19 20 0 21 -33 29 -45 10z"/>
<path d="M1015 990 c-9 -15 4 -30 26 -30 12 0 19 7 19 20 0 21 -33 29 -45 10z"/>
<path d="M1120 982 c0 -24 8 -32 26 -25 22 8 17 43 -6 43 -13 0 -20 -7 -20
-18z"/>
<path d="M2563 984 c-3 -8 -1 -20 4 -25 12 -12 48 14 39 29 -10 17 -36 15 -43
-4z"/>
<path d="M2660 980 c0 -16 5 -21 23 -18 12 2 22 10 22 18 0 8 -10 16 -22 18
-18 3 -23 -2 -23 -18z"/>
<path d="M2766 991 c-4 -5 -3 -16 0 -25 5 -12 10 -13 25 -5 10 5 19 16 19 24
0 16 -35 21 -44 6z"/>
<path d="M2867 993 c-16 -15 -6 -34 15 -31 29 4 38 38 10 38 -10 0 -22 -3 -25
-7z"/>
<path d="M763 914 c-7 -18 11 -39 26 -30 17 11 13 46 -4 46 -9 0 -18 -7 -22
-16z"/>
<path d="M862 908 c2 -13 10 -23 18 -23 8 0 16 10 18 23 3 17 -2 22 -18 22
-16 0 -21 -5 -18 -22z"/>
<path d="M963 914 c-7 -18 11 -39 26 -30 17 11 13 46 -4 46 -9 0 -18 -7 -22
-16z"/>
<path d="M2723 914 c-7 -18 11 -39 26 -30 17 11 13 46 -4 46 -9 0 -18 -7 -22
-16z"/>
<path d="M2823 914 c-3 -8 -1 -20 6 -27 14 -14 47 15 37 32 -10 16 -36 13 -43
-5z"/>
<path d="M1516 894 c-9 -23 0 -30 20 -13 14 11 18 11 29 -4 17 -24 27 -21 23
6 -4 29 -62 38 -72 11z"/>
<path d="M1610 873 c1 -25 2 -26 14 -10 16 21 36 22 36 2 0 -8 5 -15 11 -15 6
0 9 10 7 23 -2 17 -11 23 -35 25 -30 3 -33 1 -33 -25z"/>
<path d="M1695 880 c-3 -5 -2 -17 3 -26 8 -15 10 -15 15 0 8 21 37 21 37 0 0
-8 5 -12 10 -9 6 3 10 15 10 26 0 15 -7 19 -34 19 -19 0 -38 -4 -41 -10z"/>
<path d="M1790 865 c0 -23 2 -24 21 -13 17 10 23 10 26 1 7 -20 23 -15 23 6 0
11 -9 21 -22 25 -39 10 -48 7 -48 -19z"/>
<path d="M1896 877 c-14 -10 -17 -19 -11 -33 7 -17 8 -18 12 -1 5 18 33 24 33
7 0 -5 5 -10 11 -10 16 0 6 44 -11 48 -9 1 -24 -4 -34 -11z"/>
<path d="M1977 884 c-11 -11 -8 -44 3 -44 6 0 10 5 10 10 0 6 9 10 20 10 11 0
20 -4 20 -10 0 -5 5 -10 11 -10 6 0 9 10 7 23 -2 16 -11 23 -33 25 -17 2 -34
0 -38 -4z"/>
<path d="M817 854 c-9 -10 4 -34 19 -34 8 0 14 9 14 20 0 19 -19 27 -33 14z"/>
<path d="M2777 853 c-14 -13 -6 -33 13 -33 13 0 20 7 20 20 0 19 -20 27 -33
13z"/>
<path d="M1500 811 c0 -17 6 -21 36 -21 28 0 35 3 32 18 -2 11 -14 18 -36 20
-27 3 -32 0 -32 -17z"/>
<path d="M1613 813 c-7 -2 -13 -11 -13 -19 0 -15 43 -30 59 -19 13 8 14 35 2
35 -5 0 -15 2 -23 4 -7 3 -19 2 -25 -1z"/>
<path d="M1707 803 c-18 -17 -5 -33 28 -33 23 0 35 5 35 14 0 21 -47 35 -63
19z"/>
<path d="M1818 802 c-28 -6 -30 -31 -3 -38 31 -8 55 1 55 20 0 15 -25 24 -52
18z"/>
<path d="M1997 803 c-18 -17 -5 -33 27 -33 31 0 53 19 39 34 -8 8 -58 8 -66
-1z"/>
<path d="M1894 789 c-7 -13 13 -29 37 -29 16 0 39 19 39 32 0 12 -68 9 -76 -3z"/>
<path d="M1214 746 c-75 -56 -148 -131 -140 -144 3 -6 28 -24 56 -41 l49 -30
44 82 c39 70 67 142 67 170 0 15 -20 6 -76 -37z m0 -86 c-35 -65 -47 -74 -73
-60 -12 6 -21 14 -21 19 0 16 113 116 118 103 2 -6 -9 -34 -24 -62z"/>
<path d="M1657 739 c-19 -29 -10 -82 15 -87 27 -5 37 62 14 93 -13 18 -14 17
-29 -6z"/>
<path d="M2006 744 c-10 -26 -7 -48 10 -73 21 -30 34 -13 34 47 0 35 -3 42
-19 42 -10 0 -22 -7 -25 -16z"/>
<path d="M1970 690 c0 -11 -7 -20 -15 -20 -8 0 -15 -7 -15 -16 0 -10 7 -14 23
-12 17 2 23 11 25 36 2 18 -1 32 -7 32 -6 0 -11 -9 -11 -20z"/>
<path d="M1620 685 c0 -9 -9 -19 -20 -22 -19 -5 -25 -26 -7 -24 4 1 16 1 27 1
15 0 20 7 20 24 0 14 -4 28 -10 31 -5 3 -10 -1 -10 -10z"/>
<path d="M1710 671 c0 -33 11 -44 34 -35 20 8 21 24 1 24 -8 0 -15 9 -15 20 0
11 -4 20 -10 20 -5 0 -10 -13 -10 -29z"/>
<path d="M1654 626 c-15 -12 -17 -18 -8 -33 26 -42 77 -16 54 28 -13 23 -20
24 -46 5z m26 -26 c0 -5 -2 -10 -4 -10 -3 0 -8 5 -11 10 -3 6 -1 10 4 10 6 0
11 -4 11 -10z"/>
<path d="M1898 633 c-28 -7 -30 -33 -2 -45 27 -13 74 -2 81 18 3 9 -55 40 -61
33 -1 -1 -8 -3 -18 -6z"/>
<path d="M1995 619 c-9 -27 6 -42 36 -37 18 2 25 10 27 31 3 24 0 27 -27 27
-21 0 -31 -6 -36 -21z m45 -3 c0 -3 -4 -8 -10 -11 -5 -3 -10 -1 -10 4 0 6 5
11 10 11 6 0 10 -2 10 -4z"/>
<path d="M1738 619 c-25 -14 -22 -28 9 -40 36 -14 73 -4 73 20 0 29 -47 41
-82 20z"/>
<path d="M1940 561 c0 -5 7 -11 15 -15 8 -3 15 -12 15 -21 0 -8 5 -15 10 -15
6 0 10 14 10 30 0 25 -4 30 -25 30 -14 0 -25 -4 -25 -9z"/>
<path d="M1580 551 c0 -5 9 -13 20 -16 11 -3 20 -13 20 -21 0 -8 5 -12 10 -9
6 3 10 17 10 31 0 20 -5 24 -30 24 -16 0 -30 -4 -30 -9z"/>
<path d="M1710 536 c0 -14 5 -28 10 -31 6 -3 10 1 10 10 0 8 7 18 15 21 24 9
17 24 -10 24 -20 0 -25 -5 -25 -24z"/>
<path d="M2010 541 c-14 -27 -13 -54 3 -75 13 -17 14 -17 30 -1 19 19 21 33 7
69 -11 31 -25 33 -40 7z"/>
<path d="M1657 543 c-12 -11 -8 -78 5 -91 16 -16 38 3 38 32 0 52 -22 81 -43
59z"/>
<path d="M1816 524 c-10 -27 -7 -59 9 -80 13 -16 16 -17 25 -4 14 21 13 73 -2
88 -16 16 -25 15 -32 -4z"/>
<path d="M1780 460 c0 -11 -7 -20 -15 -20 -8 0 -15 -4 -15 -10 0 -5 11 -10 25
-10 21 0 25 5 25 30 0 17 -4 30 -10 30 -5 0 -10 -9 -10 -20z"/>
<path d="M1874 466 c-10 -26 4 -46 31 -46 14 0 25 5 25 10 0 6 -7 10 -15 10
-8 0 -15 6 -15 14 0 22 -19 30 -26 12z"/>
<path d="M1811 406 c-26 -31 14 -71 45 -45 21 17 14 53 -12 57 -11 2 -26 -4
-33 -12z"/>
<path d="M1695 396 c-16 -12 -18 -17 -8 -27 16 -16 81 -15 96 0 27 27 -55 52
-88 27z"/>
<path d="M1901 399 c-21 -8 -23 -12 -10 -24 25 -24 86 -23 96 1 11 30 -37 43
-86 23z"/>
<path d="M1405 371 c-7 -13 2 -18 50 -26 22 -4 44 -10 50 -13 5 -3 16 -7 25
-7 8 -1 41 -8 73 -14 33 -7 120 -14 195 -14 116 -2 137 0 137 13 0 9 -8 14
-20 12 -32 -4 -175 -2 -225 4 -93 10 -105 12 -120 17 -17 6 -146 37 -154 37
-3 0 -7 -4 -11 -9z"/>
<path d="M3714 2815 c-26 -62 -184 -474 -184 -480 0 -3 15 -5 34 -5 34 0 35 1
59 73 l24 72 114 0 113 0 26 -70 c25 -68 26 -70 63 -73 20 -2 37 0 37 4 0 12
-193 488 -203 502 -5 6 -23 12 -39 12 -24 0 -32 -6 -44 -35z m68 -92 c9 -27
27 -78 42 -115 l26 -68 -90 0 -90 0 21 53 c12 28 31 80 42 115 12 34 24 62 27
62 3 0 13 -21 22 -47z"/>
<path d="M4370 2591 l0 -261 35 0 35 0 0 116 0 116 65 -4 c79 -5 102 -23 178
-145 l52 -83 43 0 c32 0 41 3 36 13 -51 84 -117 178 -138 194 -30 24 -33 33
-8 33 29 0 80 37 98 71 20 40 14 110 -13 148 -35 46 -66 55 -230 59 l-153 4 0
-261z m314 170 c26 -24 33 -61 20 -96 -13 -32 -59 -45 -164 -45 l-100 0 0 86
0 86 109 -4 c99 -3 112 -6 135 -27z"/>
<path d="M5207 2843 c-4 -3 -7 -120 -7 -260 l0 -253 35 0 35 0 0 260 0 260
-28 0 c-16 0 -32 -3 -35 -7z"/>
<path d="M5773 2829 c-58 -28 -89 -90 -74 -147 17 -61 47 -81 178 -117 99 -27
130 -46 139 -81 14 -57 -69 -112 -151 -99 -59 8 -101 37 -115 79 -10 30 -16
36 -40 36 -37 0 -41 -7 -25 -54 35 -102 166 -153 286 -111 86 31 129 102 109
177 -14 48 -58 84 -126 103 -30 8 -79 22 -109 30 -69 19 -94 50 -76 94 15 35
48 51 109 51 62 0 93 -17 115 -63 16 -32 22 -36 45 -31 36 9 36 8 23 47 -15
43 -58 85 -102 97 -58 17 -140 12 -186 -11z"/>
<path d="M6450 2815 l0 -35 85 0 85 0 0 -225 0 -225 35 0 35 0 0 225 0 224 83
3 82 3 0 30 0 30 -202 3 -203 2 0 -35z"/>
<path d="M7334 2831 c-53 -24 -108 -90 -125 -149 -44 -154 25 -309 154 -347
63 -19 91 -19 153 0 108 32 167 118 168 245 0 41 -5 92 -13 114 -18 51 -76
115 -126 137 -54 25 -157 25 -211 0z m179 -55 c134 -55 143 -304 15 -373 -49
-26 -134 -23 -181 6 -56 35 -81 90 -81 181 1 80 14 118 56 157 46 43 128 56
191 29z"/>
<path d="M8044 2836 c-3 -8 -4 -23 -2 -33 3 -15 15 -18 86 -21 l82 -3 0 -224
0 -225 35 0 35 0 0 225 0 225 85 0 85 0 0 35 0 35 -200 0 c-166 0 -202 -3
-206 -14z"/>
<path d="M8827 2843 c-4 -3 -7 -120 -7 -260 l0 -253 165 0 165 0 0 30 0 30
-130 0 -130 0 0 230 0 230 -28 0 c-16 0 -32 -3 -35 -7z"/>
<path d="M9540 2590 l0 -260 190 0 190 0 0 30 0 30 -155 0 -155 0 0 85 0 85
140 0 140 0 0 35 0 35 -140 0 -140 0 0 75 0 75 150 0 150 0 0 35 0 35 -185 0
-185 0 0 -260z"/>
<path d="M7831 1979 c-75 -23 -111 -67 -111 -137 0 -71 45 -108 166 -138 127
-31 168 -65 149 -124 -17 -55 -133 -79 -205 -42 -30 14 -58 52 -73 96 -2 5
-15 6 -30 2 -64 -16 2 -135 92 -165 52 -17 150 -13 197 8 76 34 109 107 82
179 -19 50 -59 74 -178 107 -112 31 -130 43 -130 86 0 38 29 65 78 74 77 13
152 -25 152 -77 0 -14 8 -18 35 -18 30 0 35 3 35 24 0 35 -40 89 -82 109 -46
22 -131 30 -177 16z"/>
<path d="M3580 1808 c1 -229 11 -268 84 -322 23 -18 42 -21 121 -21 79 0 98 3
121 21 73 54 83 93 84 322 l0 172 -35 0 -35 0 -1 -177 c0 -207 -8 -240 -59
-265 -75 -38 -175 -12 -197 52 -7 22 -12 103 -12 213 l-1 177 -35 0 -35 0 0
-172z"/>
<path d="M4340 1719 l0 -260 33 3 32 3 5 194 5 193 130 -193 c127 -190 131
-194 165 -194 l35 0 3 258 2 257 -35 0 -35 0 -2 -197 -3 -197 -130 197 -130
197 -37 0 -38 0 0 -261z"/>
<path d="M5102 1723 l3 -258 33 -3 32 -3 0 260 0 261 -35 0 -35 0 2 -257z"/>
<path d="M5490 1971 c0 -10 176 -464 191 -492 8 -15 19 -19 42 -17 31 3 32 4
129 248 53 135 97 251 97 258 1 7 -12 12 -32 12 l-32 0 -84 -225 -85 -226 -80
226 -81 225 -32 0 c-18 0 -33 -4 -33 -9z"/>
<path d="M6250 1720 l0 -260 190 0 190 0 0 35 0 35 -155 0 -155 0 0 85 0 85
140 0 140 0 0 30 0 30 -140 0 -140 0 0 80 0 80 150 0 150 0 0 30 0 30 -185 0
-185 0 0 -260z"/>
<path d="M6962 1723 l3 -258 33 -3 32 -3 0 115 0 116 64 0 c81 0 103 -17 182
-140 56 -87 59 -90 96 -90 21 0 38 4 38 9 0 19 -120 191 -146 207 l-26 18 38
13 c78 27 117 98 93 171 -28 88 -64 102 -259 102 l-150 0 2 -257z m319 168
c33 -33 35 -50 14 -90 -19 -39 -33 -43 -157 -49 l-108 -5 0 87 0 86 111 0
c109 0 111 0 140 -29z"/>
<path d="M8442 1723 l3 -258 33 -3 32 -3 0 260 0 261 -35 0 -35 0 2 -257z"/>
<path d="M8830 1950 l0 -30 85 0 85 0 2 -227 3 -228 33 -3 32 -3 0 230 0 231
85 0 85 0 0 30 0 30 -205 0 -205 0 0 -30z"/>
<path d="M9516 1953 c10 -16 52 -80 93 -143 l76 -115 5 -115 5 -115 33 -3 32
-3 0 111 0 112 100 144 c55 79 100 146 100 149 0 3 -17 5 -39 5 -38 0 -39 -1
-112 -115 -41 -63 -76 -115 -79 -115 -3 0 -38 52 -79 115 -74 115 -74 115
-114 115 l-39 0 18 -27z"/>
<path d="M3715 1108 c-49 -17 -93 -56 -122 -105 -35 -61 -44 -180 -18 -249 83
-218 387 -214 460 6 41 122 -3 265 -100 325 -40 25 -60 30 -119 32 -39 1 -84
-3 -101 -9z m177 -70 c58 -33 81 -77 85 -167 4 -65 1 -83 -19 -121 -53 -103
-180 -128 -269 -53 -44 37 -59 80 -59 165 0 57 5 82 23 113 45 80 156 109 239
63z"/>
<path d="M4147 1113 c-4 -3 -7 -120 -7 -260 l0 -253 35 0 35 0 0 115 0 115
120 0 120 0 0 35 0 35 -120 0 -120 0 0 75 0 75 140 0 140 0 0 35 0 35 -168 0
c-93 0 -172 -3 -175 -7z"/>
<path d="M4734 1106 c-3 -8 -4 -23 -2 -33 3 -15 15 -18 86 -21 l82 -3 0 -224
0 -225 35 0 35 0 0 225 0 225 85 0 85 0 0 35 0 35 -200 0 c-166 0 -202 -3
-206 -14z"/>
<path d="M5217 1113 c-4 -3 -7 -120 -7 -260 l0 -253 35 0 35 0 0 120 0 120
135 0 135 0 0 -120 0 -120 35 0 35 0 0 261 0 260 -32 -3 -33 -3 -3 -107 -3
-108 -134 0 -135 0 0 110 0 110 -28 0 c-16 0 -32 -3 -35 -7z"/>
<path d="M5737 1114 c-4 -4 -7 -121 -7 -261 l0 -253 195 0 195 0 0 30 0 30
-160 0 -160 0 0 85 0 84 143 3 142 3 0 30 0 30 -142 3 -143 3 0 74 0 74 153 3
152 3 0 30 0 30 -181 3 c-99 1 -183 -1 -187 -4z"/>
<path d="M6293 1100 c-58 -26 -85 -71 -80 -130 7 -68 48 -100 174 -134 112
-31 143 -52 143 -97 0 -63 -84 -101 -175 -78 -49 12 -95 56 -95 90 0 15 -7 19
-35 19 -43 0 -45 -16 -12 -80 33 -66 89 -94 187 -95 129 0 195 51 195 153 0
49 -3 56 -37 87 -22 21 -58 40 -92 50 -31 8 -81 22 -111 30 -64 18 -85 47 -69
93 12 34 47 52 106 52 65 0 95 -16 115 -62 14 -31 21 -38 38 -34 11 3 25 6 32
6 14 0 1 51 -22 87 -39 59 -177 82 -262 43z"/>
<path d="M6775 1101 c-97 -44 -111 -160 -26 -220 16 -11 70 -32 121 -45 125
-34 142 -46 138 -98 -4 -58 -40 -83 -116 -82 -75 0 -119 24 -141 75 -14 34
-20 39 -48 39 -37 0 -37 0 -23 -52 32 -115 230 -166 340 -88 77 55 80 175 6
223 -14 9 -65 28 -113 42 -123 35 -142 44 -149 71 -14 56 30 94 111 94 62 0
101 -22 116 -65 12 -33 16 -35 44 -29 16 3 31 7 32 8 8 7 -21 76 -40 94 -56
53 -175 68 -252 33z"/>
<path d="M7277 1003 c-25 -65 -71 -181 -100 -258 l-55 -140 25 -3 c40 -6 48 3
73 77 l25 71 111 0 111 0 28 -75 27 -75 39 0 39 0 -17 43 c-9 23 -56 139 -104
257 l-86 215 -35 3 -35 3 -46 -118z m122 -69 c22 -61 41 -114 41 -118 0 -3
-38 -6 -85 -6 -47 0 -85 2 -85 4 0 2 15 44 33 93 19 48 37 101 41 117 4 15 8
27 10 25 2 -2 22 -54 45 -115z"/>
<path d="M7657 1113 c-4 -3 -7 -120 -7 -260 l0 -253 165 0 165 0 0 30 0 30
-130 0 -130 0 0 230 0 230 -28 0 c-16 0 -32 -3 -35 -7z"/>
<path d="M8175 1101 c-50 -22 -108 -86 -126 -137 -23 -67 -18 -171 13 -236 84
-179 346 -182 433 -4 32 66 38 152 15 231 -18 63 -87 135 -146 153 -59 17
-142 15 -189 -7z m179 -55 c96 -40 134 -200 73 -309 -73 -130 -278 -102 -317
44 -16 56 -7 149 17 196 37 70 145 103 227 69z"/>
<path d="M8620 860 l0 -260 35 0 35 0 2 191 3 192 128 -192 c125 -187 128
-191 162 -191 l35 0 0 261 0 260 -32 -3 -33 -3 -5 -192 -5 -191 -129 194
c-125 188 -130 194 -162 194 l-34 0 0 -260z"/>
<path d="M9147 1113 c-4 -3 -7 -120 -7 -260 l0 -253 35 0 35 0 0 260 0 260
-28 0 c-16 0 -32 -3 -35 -7z"/>
<path d="M9337 1113 c-4 -3 -7 -120 -7 -260 l0 -253 35 0 35 0 0 88 0 88 43
41 42 42 90 -129 90 -129 43 -1 c23 0 42 2 42 5 0 3 -47 70 -105 149 -58 79
-105 148 -105 152 0 5 46 55 102 111 l103 103 -45 0 c-44 0 -47 -2 -172 -127
l-128 -128 0 128 0 127 -28 0 c-16 0 -32 -3 -35 -7z"/>
<path d="M9827 1113 c-4 -3 -7 -120 -7 -260 l0 -253 35 0 35 0 0 260 0 260
-28 0 c-16 0 -32 -3 -35 -7z"/>
</g>
</svg>
