<?xml version="1.0" encoding="utf-8"?>
<!-- Generator: Adobe Illustrator 25.3.1, SVG Export Plug-In . SVG Version: 6.00 Build 0)  -->
<svg version="1.1" id="Layer_1" xmlns="http://www.w3.org/2000/svg" xmlns:xlink="http://www.w3.org/1999/xlink" x="0px" y="0px"
	 viewBox="0 0 492 355.7" style="enable-background:new 0 0 492 355.7;" xml:space="preserve">
<style type="text/css">
	.st0{enable-background:new    ;}
	.st1{clip-path:url(#SVGID_3_);enable-background:new    ;}
	.st2{fill:url(#SVGID_4_);}
	.st3{fill:url(#SVGID_5_);}
	.st4{fill:url(#SVGID_6_);}
	.st5{fill:url(#SVGID_7_);}
	.st6{fill:url(#SVGID_8_);}
	.st7{fill:url(#SVGID_9_);}
	.st8{clip-path:url(#SVGID_3_);fill:url(#SVGID_10_);}
	.st9{clip-path:url(#SVGID_12_);fill:#11416B;}
	.st10{fill:url(#SVGID_13_);}
	.st11{fill:#616264;}
	.st12{fill:#A3A5A8;}
	.st13{fill:url(#SVGID_40_);}
	.st14{opacity:0.7;fill:#F9F9FA;}
</style>
<g>
	<path d="M438.5,68.4C414.5,43.2,384,27.5,336.8,18c-28.4-5.7-54.3-10-74.9-10.4h0v0l-78.5,38l-0.1,275.5l0,0l0,0v0l0,0
		c14,4.9,34.6,11.1,63.7,17c1.4,0.3,2.8,0.6,4.2,0.8c0.5,0.1,1,0.2,1.4,0.3c0.9,0.2,1.8,0.3,2.7,0.5c0.6,0.1,1.1,0.2,1.7,0.3
		c0.8,0.1,1.7,0.3,2.5,0.4c0.6,0.1,1.1,0.2,1.7,0.3c0.8,0.1,1.7,0.2,2.5,0.4c0.5,0.1,1.1,0.2,1.6,0.2c0.9,0.1,1.9,0.2,2.8,0.4
		c0.4,0.1,0.8,0.1,1.2,0.2c1.3,0.2,2.6,0.3,3.9,0.4c0.3,0,0.6,0.1,0.9,0.1c1,0.1,2,0.2,3,0.3c0.5,0,0.9,0.1,1.4,0.1
		c0.8,0.1,1.7,0.1,2.5,0.2c0.5,0,1,0.1,1.4,0.1c0.8,0.1,1.7,0.1,2.5,0.1c0.5,0,0.9,0,1.4,0.1c0.9,0,1.8,0.1,2.6,0.1
		c0.4,0,0.8,0,1.1,0c1.2,0,2.4,0.1,3.6,0.1c0,0,0.1,0,0.1,0c1.3,0,2.5,0,3.8,0c0.2,0,0.4,0,0.7,0c1,0,2,0,3-0.1c0.3,0,0.7,0,1,0
		c0.9,0,1.7-0.1,2.6-0.1c0.3,0,0.7,0,1-0.1c0.9-0.1,1.8-0.1,2.6-0.2c0.3,0,0.6,0,0.9-0.1c1-0.1,2-0.2,3-0.3c0.1,0,0.3,0,0.4,0
		c2.3-0.3,4.6-0.6,6.9-0.9c0.2,0,0.3-0.1,0.5-0.1c0.9-0.2,1.9-0.3,2.8-0.5c0.2,0,0.5-0.1,0.7-0.1c0.9-0.2,1.7-0.3,2.6-0.5
		c0.2-0.1,0.5-0.1,0.7-0.2c0.9-0.2,1.8-0.4,2.6-0.6c0.2,0,0.3-0.1,0.5-0.1c3.2-0.8,6.2-1.7,9.2-2.8c0.2-0.1,0.3-0.1,0.5-0.2
		c0.8-0.3,1.6-0.6,2.4-0.9c0.2-0.1,0.4-0.2,0.6-0.2c0.8-0.3,1.5-0.6,2.3-0.9c0.2-0.1,0.4-0.2,0.6-0.2c0.8-0.4,1.6-0.7,2.4-1.1
		c0.1,0,0.2-0.1,0.3-0.1c0.1-0.1,0.3-0.1,0.4-0.2c2.2-1.1,4.5-2.2,6.7-3.2c-2.5,1.5-5,2.9-7.6,4.2c26.2-12.7,52.3-25.3,78.5-38
		c4.6-2.2,8.8-4.8,12.8-7.7c24-18.1,41.3-51.6,41.3-105.3C480.5,133,464.3,95.2,438.5,68.4z M380.2,305.2c-0.2,0-0.4,0-0.7,0
		c-0.8,0-1.6,0-2.3,0.1c-0.4,0-0.8,0-1.3,0c-1.2,0-2.4,0-3.6,0c-0.3,0-0.7,0-1,0c-0.9,0-1.8,0-2.7,0c-0.5,0-1,0-1.5,0
		c-0.7,0-1.5,0-2.2-0.1c-0.6,0-1.1-0.1-1.7-0.1c-0.7,0-1.4-0.1-2.1-0.1c-0.6,0-1.2-0.1-1.7-0.1c-0.7,0-1.4-0.1-2.1-0.2
		c-0.6,0-1.1-0.1-1.7-0.1c-0.8-0.1-1.6-0.2-2.4-0.2c-0.5,0-1-0.1-1.5-0.1c-1.3-0.1-2.5-0.3-3.8-0.4c-0.5-0.1-1.1-0.1-1.6-0.2
		c-0.8-0.1-1.6-0.2-2.4-0.3c-0.6-0.1-1.2-0.2-1.8-0.3c-0.8-0.1-1.5-0.2-2.3-0.3c-0.6-0.1-1.2-0.2-1.8-0.3c-0.8-0.1-1.6-0.3-2.4-0.4
		c-0.6-0.1-1.2-0.2-1.8-0.3c-0.9-0.2-1.8-0.3-2.6-0.5c-0.5-0.1-1-0.2-1.5-0.3c-1.4-0.3-2.8-0.5-4.2-0.8c-29.1-5.8-49.7-12.1-63.7-17
		l0.1-226.4c45.2,9.6,74.8,25.1,98.2,49.7c25.8,26.8,42,64.6,41.9,114.1C401.9,258.1,393.5,285.7,380.2,305.2z"/>
	<polygon points="96.6,300.1 128.5,308.4 128.7,274.3 96.8,266.5 	"/>
	<polygon points="54,289.3 86,297.4 86.2,263.9 54.2,256.2 	"/>
	<polygon points="11.4,278.6 43.4,286.6 43.6,253.7 11.6,246.2 	"/>
	<polygon points="54.6,201.2 86.5,208.1 86.7,174.6 54.8,168.1 	"/>
	<polygon points="97.2,210.4 129.1,217.4 129.3,183.3 97.4,176.8 	"/>
	<polygon points="139.5,265.5 171.4,273.2 171.6,238.5 139.7,231.2 	"/>
	<polygon points="139.2,311.1 171.1,319.5 171.3,284.8 139.4,276.9 	"/>
	<polygon points="139.8,219.8 171.7,227 171.9,192.3 140,185.6 	"/>
	<polygon points="140.1,174.1 172,180.7 172.2,146 140.3,139.9 	"/>
	<polygon points="140.3,128.5 172.3,134.4 172.5,99.7 140.5,94.3 	"/>
	<polygon points="97.7,120.7 129.7,126.5 129.9,92.4 97.9,87.1 	"/>
	<polygon points="55.4,69 87.3,74.1 87.5,40.6 55.6,36 	"/>
	<polygon points="12.5,105.6 44.5,111.2 44.7,78.3 12.7,73.2 	"/>
</g>
</svg>
