<?xml version="1.0" standalone="no"?>
<!DOCTYPE svg PUBLIC "-//W3C//DTD SVG 20010904//EN"
 "http://www.w3.org/TR/2001/REC-SVG-20010904/DTD/svg10.dtd">
<svg version="1.0" xmlns="http://www.w3.org/2000/svg"
 width="1213.000000pt" height="646.000000pt" viewBox="0 0 1213.000000 646.000000"
 preserveAspectRatio="xMidYMid meet">

<g transform="translate(0.000000,646.000000) scale(0.100000,-0.100000)"
fill="#000000" stroke="none">
<path d="M4625 5358 c-2332 -434 -4245 -795 -4252 -801 -40 -40 -69 -1450 -43
-2082 12 -299 30 -604 36 -632 2 -13 14 -25 27 -27 12 -3 794 -46 1737 -96
1058 -56 1719 -95 1727 -102 7 -6 13 -18 13 -28 0 -9 -124 -297 -276 -639
-151 -343 -274 -632 -272 -644 2 -11 10 -24 19 -30 24 -15 8538 1572 8549
1593 19 38 50 839 50 1330 0 597 -34 1369 -61 1394 -11 10 -440 36 -1739 105
-1672 89 -1726 92 -1742 112 -16 18 -16 24 -4 52 7 18 132 298 276 622 144
325 265 600 267 613 7 30 -13 52 -46 51 -14 0 -1934 -356 -4266 -791z m5188
-1455 c122 -43 189 -85 287 -183 72 -71 94 -101 133 -180 57 -117 79 -207 79
-330 0 -123 -22 -213 -79 -330 -39 -78 -62 -109 -132 -180 -98 -97 -164 -139
-288 -183 -82 -29 -98 -31 -223 -32 -114 0 -147 4 -210 23 -113 36 -203 88
-287 165 -165 154 -236 317 -236 537 0 124 14 193 58 295 80 179 256 339 441
399 90 29 137 35 254 32 97 -3 129 -8 203 -33z m-7545 -281 l2 -282 338 2 337
3 3 283 2 283 123 -3 122 -3 0 -695 0 -695 -122 -3 -123 -3 -2 283 -3 283
-337 3 -338 2 -2 -282 -3 -283 -119 -3 c-89 -2 -121 1 -128 10 -9 15 -11 1348
-2 1372 5 14 24 16 128 14 l121 -3 3 -283z m2607 163 l0 -120 -432 -3 -433 -2
0 -160 0 -160 324 0 c178 0 331 -3 340 -6 24 -9 24 -239 0 -248 -9 -3 -162 -6
-340 -6 l-324 0 0 -160 0 -160 433 -2 432 -3 0 -120 0 -120 -554 -3 c-437 -2
-556 0 -563 10 -9 15 -11 1348 -2 1372 6 15 62 16 563 14 l556 -3 0 -120z
m1271 105 c257 -65 452 -256 520 -510 23 -86 24 -252 1 -340 -50 -191 -190
-365 -364 -452 -147 -74 -185 -79 -573 -76 l-335 3 -3 685 c-1 377 0 691 3
698 3 9 80 12 338 12 301 0 342 -2 413 -20z m1614 -460 c206 -264 380 -480
387 -480 10 0 13 101 15 478 l3 477 120 0 120 0 0 -695 0 -695 -125 -3 -125
-2 -375 480 c-206 264 -380 480 -387 480 -10 0 -13 -101 -15 -477 l-3 -478
-120 0 -120 0 -3 685 c-1 377 0 691 3 698 3 9 38 12 127 12 l123 0 375 -480z"/>
<path d="M9505 3679 c-33 -5 -91 -24 -131 -44 -352 -173 -352 -678 0 -850 237
-116 527 -16 638 220 163 349 -122 728 -507 674z"/>
<path d="M5655 3649 c-3 -8 -4 -210 -3 -449 l3 -435 205 0 c173 0 213 3 258
18 124 44 225 141 274 266 32 81 32 242 -1 323 -47 119 -140 212 -262 260 -48
19 -78 22 -261 26 -168 3 -209 1 -213 -9z"/>
</g>
</svg>
