<?xml version="1.0" standalone="no"?>
<!DOCTYPE svg PUBLIC "-//W3C//DTD SVG 20010904//EN"
 "http://www.w3.org/TR/2001/REC-SVG-20010904/DTD/svg10.dtd">
<svg version="1.0" xmlns="http://www.w3.org/2000/svg"
 width="720.000000pt" height="260.000000pt" viewBox="0 0 720.000000 260.000000"
 preserveAspectRatio="xMidYMid meet">

<g transform="translate(0.000000,260.000000) scale(0.100000,-0.100000)"
fill="#000000" stroke="none">
<path d="M210 2097 l0 -105 38 -32 c20 -18 69 -63 108 -101 40 -38 74 -69 78
-69 3 0 6 46 6 101 l0 101 -67 62 c-38 34 -89 82 -115 105 l-48 44 0 -106z"/>
<path d="M2550 2115 l0 -75 560 0 560 0 0 75 0 75 -560 0 -560 0 0 -75z"/>
<path d="M4770 1946 l0 -244 -267 -5 c-282 -5 -320 -10 -413 -57 -187 -94
-291 -276 -319 -557 -27 -268 60 -480 255 -619 142 -101 271 -134 529 -134
l175 0 0 29 c0 15 -3 49 -6 73 l-6 46 -187 4 c-169 4 -193 7 -264 32 -96 32
-167 77 -229 143 -86 93 -118 185 -118 339 0 318 125 507 360 544 36 5 194 10
353 10 l287 0 0 320 0 320 -75 0 -75 0 0 -244z"/>
<path d="M5070 1260 l0 -930 75 0 75 0 0 930 0 930 -75 0 -75 0 0 -930z"/>
<path d="M5370 2116 l0 -74 373 -5 c305 -3 385 -7 447 -21 192 -45 311 -105
421 -215 93 -93 159 -218 185 -350 23 -119 15 -366 -16 -471 -53 -185 -173
-332 -330 -408 -161 -78 -255 -92 -632 -92 l-288 0 0 555 0 556 -77 -3 -78 -3
-3 -627 -2 -628 397 0 c430 0 490 5 639 55 180 60 345 192 431 345 118 211
166 559 107 790 -19 77 -79 210 -124 275 -137 199 -396 341 -705 385 -38 5
-222 10 -407 10 l-338 0 0 -74z"/>
<path d="M610 2078 l0 -103 228 -202 c125 -111 252 -224 282 -251 236 -212
397 -352 405 -351 6 0 210 181 455 402 l445 402 3 103 c1 56 0 102 -4 102 -4
0 -41 -31 -83 -68 -42 -37 -233 -209 -426 -382 -192 -172 -360 -322 -372 -333
l-21 -19 -408 364 c-518 461 -491 438 -498 438 -3 0 -6 -46 -6 -102z"/>
<path d="M240 1100 l0 -770 75 0 75 0 0 715 0 715 -57 45 c-32 26 -66 50 -75
56 -17 9 -18 -30 -18 -761z"/>
<path d="M610 1722 l0 -100 48 -42 c149 -133 520 -467 671 -603 97 -88 181
-161 188 -164 6 -2 214 178 462 402 l451 407 0 99 c0 54 -3 99 -7 99 -5 0
-181 -156 -393 -346 -501 -451 -499 -449 -508 -449 -5 0 -207 178 -451 395
-243 217 -447 397 -452 398 -5 2 -9 -39 -9 -96z"/>
<path d="M2550 1565 l0 -75 538 2 537 3 3 73 3 72 -541 0 -540 0 0 -75z"/>
<path d="M610 926 l0 -596 75 0 75 0 0 538 0 537 -57 45 c-31 25 -65 51 -75
58 -17 13 -18 -10 -18 -582z"/>
<path d="M2550 865 l0 -535 585 0 585 0 0 75 0 75 -510 0 -510 0 0 385 0 385
463 2 462 3 3 73 3 72 -541 0 -540 0 0 -535z"/>
</g>
</svg>
