<?xml version="1.0" encoding="utf-8"?>
<!-- Generator: Adobe Illustrator 25.3.1, SVG Export Plug-In . SVG Version: 6.00 Build 0)  -->
<svg version="1.1" id="Layer_1" xmlns="http://www.w3.org/2000/svg" xmlns:xlink="http://www.w3.org/1999/xlink" x="0px" y="0px"
	 viewBox="0 0 1844.9 624.5" style="enable-background:new 0 0 1844.9 624.5;" xml:space="preserve">
<path d="M14.8,446.1v-54.9c31,9.9,58.6,14.8,82.6,14.8c33.3,0,49.5-8.8,49.5-26.4c0.3-6.1-2.4-12.1-7.2-16.3
	c-4.8-4.8-17.5-11.2-37.9-19.5c-36.1-15.1-60.1-27.9-71-38.5c-14.4-13.9-22-32.8-21.7-52.9c0-27.1,10.6-48.3,31.3-62.5
	c20.4-14.2,47.7-21.4,80.6-21.4c18.4,0,44.8,3.1,79.3,10V231c-22.8-9.6-47.1-14.8-71.6-15.3c-31.2,0-46.5,8.4-46.5,25.5
	c0,6.4,3,11.5,9.6,15.7c4.9,3.1,19.2,10,42.6,20.8c33.7,14.8,56.2,27.9,67.6,39.1c13.6,13.3,20.7,31.9,20.1,51
	c0.9,28.5-14.1,55.2-39.1,68.8c-21.4,12.7-48.6,19.2-82.3,19.2C72,456.1,42.9,452.7,14.8,446.1L14.8,446.1z M265.8,173.4H343v276.8
	h-77.2V173.4z M413.7,450.6v-277H612v50.1H488.2v62.8h107.9V332H488.4v65.5h127.1v52.9L413.7,450.6z M666.1,450.6v-277h100.1
	l69.5,177.2l71.3-177.2h95.3v276.8H929V254.4l-81.2,198.8h-48l-79.3-198.8v196.2h-54.9L666.1,450.6L666.1,450.6z M1073.4,450.6v-277
	h198.2v50.1H1148v62.8h107.6V332H1148v65.5h127.1v52.9L1073.4,450.6z M1326.1,450.6v-277h89.5l95,185.3V173.7h54.6v276.5h-87.4
	l-97.4-187.7v187.7h-54.3L1326.1,450.6L1326.1,450.6z M1619.9,446.1v-54.9c30.9,9.9,58.3,14.8,82.6,14.8c33.3,0,49.5-8.8,49.5-26.4
	c0.3-6.1-2.4-12.1-6.9-16.3c-4.9-4.8-17.8-11.2-38.2-19.5c-36.1-14.8-60.1-27.4-71-38.5c-14.2-13.8-22.2-33.3-21.6-52.9
	c0-27.1,10.3-48,31.3-62.2c20.4-14.2,47.4-21.4,80.3-21.4c18.9,0,42.9,3,72.7,8.8l6.9,1v52.5c-22.6-9.6-47.1-14.8-71.6-15.3
	c-30.9,0-46.5,8.4-46.5,25.5c0,6.4,3.1,11.5,9.6,15.7c4.9,3,19.2,10,43.2,20.8c33.4,14.8,55.9,27.9,67.3,39.1
	c13.6,13.3,20.7,31.9,19.9,51c0,30.1-12.7,53.1-38.5,68.8c-21.6,12.7-49,19.2-82.6,19.2C1677.1,456.1,1648.3,452.5,1619.9,446.1
	L1619.9,446.1z"/>
</svg>
