<?xml version="1.0" encoding="utf-8"?>
<!-- Generator: Adobe Illustrator 25.3.1, SVG Export Plug-In . SVG Version: 6.00 Build 0)  -->
<svg version="1.1" id="Layer_1" xmlns="http://www.w3.org/2000/svg" xmlns:xlink="http://www.w3.org/1999/xlink" x="0px" y="0px"
	 viewBox="0 0 769.3 768" style="enable-background:new 0 0 769.3 768;" xml:space="preserve">
<style type="text/css">
	.st0{fill:none;stroke:#000000;stroke-width:15;stroke-miterlimit:10;}
	.st1{fill:none;stroke:#000000;stroke-width:4.9874;stroke-miterlimit:10;}
	.st2{fill:url(#SVGID_1_);}
	.st3{fill:url(#SVGID_2_);}
	.st4{fill:url(#SVGID_3_);}
	.st5{fill:url(#SVGID_4_);}
	.st6{fill:url(#SVGID_5_);}
	.st7{fill:url(#SVGID_6_);}
	.st8{fill:url(#SVGID_7_);}
	.st9{fill:url(#SVGID_8_);}
	.st10{fill:url(#SVGID_9_);}
	.st11{fill:url(#SVGID_10_);}
	.st12{fill:url(#SVGID_11_);}
	.st13{fill:#3A3A3A;}
	.st14{fill:url(#SVGID_12_);}
	.st15{fill:url(#SVGID_13_);}
	.st16{fill:url(#SVGID_14_);}
	.st17{fill:url(#SVGID_15_);}
	.st18{fill:url(#SVGID_16_);}
	.st19{fill:url(#SVGID_17_);}
	.st20{fill:#FFFFFF;}
</style>
<linearGradient id="SVGID_1_" gradientUnits="userSpaceOnUse" x1="232.4193" y1="140.2353" x2="497.3381" y2="711.4126">
	<stop  offset="0" style="stop-color:#42F1AE"/>
	<stop  offset="1" style="stop-color:#3BB3FE"/>
</linearGradient>
<path class="st2" d="M690.1,336.3c0-0.2-0.1-0.4-0.1-0.6v-0.3l-0.5-2c-1.2-4.4-2.9-8.6-5.2-12.5c0-0.1-0.1-0.1-0.1-0.2l-0.2-0.4
	c-0.1-0.1-0.1-0.3-0.2-0.4c-1.6-2.7-3.5-5.3-5.6-7.6c-9.9-11.2-24.1-17.6-39.1-17.6c-4.3,0-8.5,0.5-12.5,1.5
	c-6.8,1.6-13.1,4.6-18.7,8.8c-5.6,4.2-10.3,9.3-13.8,15.3c-1.7,2.8-3.1,5.8-4.3,9.1c-1,2.7-1.7,5.6-2.3,8.8l-0.2,1.1l0,1.1
	c0,1.1-0.1,2.3-0.1,3.4l0,0.2c-0.1,1.4-0.1,2.8-0.2,4.1l0,0.4c-0.1,1.2-0.2,2.4-0.3,3.6c-0.1,0.4-0.1,0.8-0.1,1.2
	c-0.3,3-0.6,5.5-0.8,7.7c0,0.1,0,0.2-0.1,0.4l-0.2,1c-0.3,2.3-0.7,4.8-1.2,7.6c0,0.2-0.1,0.4-0.1,0.5c-0.1,0.4-0.2,0.8-0.2,1.3
	c-0.4,2.1-0.8,4.3-1.3,6.4l0,0.1c-0.2,0.9-0.4,1.7-0.6,2.5l-0.1,0.2c-0.4,1.7-0.8,3.5-1.2,5.2c-0.2,0.7-0.4,1.4-0.6,2.1
	c-0.2,0.6-0.3,1.3-0.5,1.9l-0.2,0.7c-0.3,1-0.6,2.1-0.9,3.1l-0.1,0.3c-0.5,1.6-1,3.2-1.5,4.7l-0.1,0.4c-0.2,0.7-0.4,1.4-0.7,2
	l-0.1,0.4c-0.7,2-1.4,4-2.2,6.1l-0.4,1.1c-3.5,9.3-7.7,18.3-12.5,27L547,406.8l-33.9-71.9l-0.1-0.2L631.9,279l15.1-7l1.3-1
	c4.6-3.5,8.6-7.6,11.9-12.4c2.8-4.2,5.1-8.9,6.7-14l0-0.1c1.5-4.9,2.3-10.1,2.3-15.4c0-0.6,0-1.3-0.1-2.3c-0.1-1.6-0.2-3.6-0.6-5.8
	c-0.2-1.1-0.4-2.3-0.6-3.4v-1.2l-1.1-2.8c-1.3-3.3-2.6-6.3-4-9.3c-0.2-0.6-0.5-1.1-0.8-1.7l-0.1-0.3c-0.1-0.2-0.2-0.3-0.3-0.5
	c-1.6-2.7-3.5-5.2-5.6-7.6c-9.9-11.2-24.1-17.6-39.1-17.6c-4.3,0-8.5,0.5-12.5,1.5l-1.5,0.4l-41.7,19.6l-92.2,43.2l-17.3-36.7
	c2-2,3.9-4.2,5.7-6.3c0.5-0.6,0.9-1.2,1.3-1.6c0.1-0.1,0.2-0.2,0.3-0.4l0.1-0.2c14.8-18.7,22.9-42.1,22.9-66
	c0-58.6-47.7-106.3-106.2-106.3c-58.6,0-106.3,47.7-106.3,106.3c0,24,8.3,47.6,23.3,66.4c0.9,1.1,1.8,2.2,2.6,3.1l0.3,0.4
	c2.3,2.6,4.7,5.2,7.3,7.6l-62.7,132.7l-48.3,102.1c-13.4-22.4-22.5-46.8-27-72.7c-0.5-2.8-0.8-5.3-1.1-7.6l-0.1-1l-0.3-1
	c-6.1-22.8-26.9-38.7-50.5-38.7c-18.4,0-35.7,9.8-45,25.6c-1.7,2.8-3.2,5.8-4.3,9.1l-0.1,0.2c-1.3,3.6-2.1,7.3-2.6,11.2l-0.2,1.8
	l0.2,1.8c0.9,7.5,2,14.3,3.2,20.7c7.7,40.9,23.2,79.3,46,114.3c9.5,14.5,20.3,28.4,32.2,41.2L92.7,652.9l-3.3,6.9l-0.3,0.8
	c-1.9,5.4-2.9,11.2-2.9,17c0,28.1,22.9,51,51,51c16.9,0,32.6-8.3,42.1-22.2l0.7-1l43.8-91.8l0.5,0.4l33.9-72l11.6-24.6l-0.2-0.1
	l18.4-38.6c27.5,10.8,56.6,16.2,86.5,16.2c31.8,0,62.5-6.1,91.5-18.2l6.6,14.1l11.9,24.9c-33.1,20.1-70.9,30.7-110,30.7
	c-15.1,0-30.2-1.6-44.6-4.7c-4.6-1-8.7-2-12.5-3.1l-1.7-0.5L314,538c-0.8,0-1.8-0.1-2.9-0.1c-4.3,0-8.5,0.5-12.5,1.5
	c-6.8,1.6-13.1,4.6-18.7,8.8c-5.6,4.2-10.3,9.3-13.8,15.3c-1.7,2.8-3.1,5.8-4.3,9.1c-1,2.7-1.7,5.5-2.2,8.7c-0.2,1-0.3,1.9-0.4,2.6
	c-0.3,2.2-0.4,4.3-0.4,6.3c0,1.2,0,2.4,0.1,3.6c0.2,2.9,0.6,5.8,1.4,8.9c0.8,3.3,1.9,6.4,3.2,9.2c1.6,3.6,3.6,7,6,10.1l0.1,0.1
	c4.8,6.3,11.2,11.5,18.3,15l1.3,0.7l1.4,0.4c5.4,1.5,10.7,2.8,15.9,4c34.8,7.7,71.4,9.4,107.4,4.9v0.5l18.1-3.2
	c8.8-1.6,17.6-3.6,26.2-5.9c24.7-6.7,48.5-16.5,70.9-29.1l46.5,97.7l1,1.3c10,13,25.1,20.4,41.5,20.4c17.3,0,33.5-8.5,43.3-22.8
	c2.8-4.2,5.1-8.9,6.7-14l0-0.1c1.5-4.9,2.3-10.1,2.3-15.4c0-0.6,0-1.3-0.1-2.3c-0.1-1.7-0.2-3.8-0.6-6.1l-0.4-2l-58.1-123
	c20.9-23.7,38.2-50.5,51.3-79.6c3-6.6,5.7-13.5,8.5-21.1c0.6-1.5,1.1-3.1,1.6-4.6c0.6-1.8,1.2-3.5,1.8-5.3
	c7.6-23.1,12.5-47,14.6-70.9c0-0.4,0.1-1,0.1-1.7c0.2-2.5,0.4-5.1,0.5-7.7l0.1-1.8c0.2-3,0.2-5.9,0.3-8.7l0-0.5c0-0.4,0-0.9,0.1-1.3
	l0.1-1.7L690.1,336.3z M374.5,391.8c-14.5,0-28.5-2.2-42-6.6l45.3-95l35.1,74.3l8.9,18.8C406.9,389,391,391.8,374.5,391.8z"/>
</svg>
