<?xml version="1.0" encoding="utf-8"?>
<!-- Generator: Adobe Illustrator 25.3.1, SVG Export Plug-In . SVG Version: 6.00 Build 0)  -->
<svg version="1.1" id="Layer_1" xmlns="http://www.w3.org/2000/svg" xmlns:xlink="http://www.w3.org/1999/xlink" x="0px" y="0px"
	 viewBox="0 0 601.5 638.9" style="enable-background:new 0 0 601.5 638.9;" xml:space="preserve">
<style type="text/css">
	.st0{fill:none;stroke:url(#SVGID_1_);stroke-width:4;stroke-miterlimit:10;}
	.st1{fill:none;stroke:#000000;stroke-width:15;stroke-miterlimit:10;}
	.st2{fill:none;stroke:#000000;stroke-width:4.9874;stroke-miterlimit:10;}
	.st3{fill:url(#SVGID_2_);}
	.st4{fill:url(#SVGID_3_);}
	.st5{fill:url(#SVGID_4_);}
	.st6{fill:url(#SVGID_5_);}
	.st7{fill:url(#SVGID_6_);}
	.st8{fill:url(#SVGID_7_);}
	.st9{fill:url(#SVGID_8_);}
	.st10{fill:url(#SVGID_9_);}
	.st11{fill:url(#SVGID_10_);}
	.st12{fill:url(#SVGID_11_);}
	.st13{fill:url(#SVGID_12_);}
	.st14{fill:#3A3A3A;}
	.st15{fill:url(#SVGID_13_);}
	.st16{fill:url(#SVGID_14_);}
	.st17{fill:url(#SVGID_15_);}
	.st18{fill:url(#SVGID_16_);}
	.st19{fill:url(#SVGID_17_);}
	.st20{fill:url(#SVGID_18_);}
	.st21{fill:url(#SVGID_19_);}
	.st22{fill:url(#SVGID_20_);}
	.st23{fill:url(#SVGID_21_);}
	.st24{fill:#FFFFFF;}
	.st25{opacity:0.15;}
	.st26{fill:#FCFCFC;}
	.st27{fill:url(#SVGID_22_);}
	.st28{fill:url(#SVGID_23_);}
	.st29{opacity:0.1;}
	.st30{fill:url(#SVGID_24_);}
	.st31{fill:url(#SVGID_25_);}
	.st32{fill:url(#SVGID_26_);}
	.st33{fill:url(#SVGID_27_);}
	.st34{fill:url(#SVGID_28_);}
	.st35{fill:none;stroke:url(#SVGID_29_);stroke-width:3.2;stroke-miterlimit:10;}
	.st36{fill:none;stroke:url(#SVGID_30_);stroke-width:2.56;stroke-miterlimit:10;}
</style>
<linearGradient id="SVGID_1_" gradientUnits="userSpaceOnUse" x1="155.9689" y1="107.7532" x2="266.5704" y2="346.215" gradientTransform="matrix(0.9397 -0.342 0.342 0.9397 -54.9926 148.4312)">
	<stop  offset="0" style="stop-color:#42F1AE"/>
	<stop  offset="1" style="stop-color:#3BB3FE"/>
</linearGradient>
<path class="st0" d="M355.7,192.3L355.7,192.3c-0.1-2.5-0.6-4.9-1.5-7.2c-0.1-0.3-0.2-0.6-0.4-1c-0.3-0.7-0.7-1.6-1.2-2.4
	c-0.2-0.5-0.5-0.9-0.8-1.4l-0.2-0.5l-1-1c-1.1-1.2-2.2-2.4-3.2-3.4c-0.2-0.2-0.4-0.4-0.6-0.6l-0.1-0.1c-0.1,0-0.1-0.1-0.2-0.1
	c-1.1-0.9-2.4-1.8-3.7-2.4c-3-1.7-6.4-2.6-9.7-2.9c-3.5-0.3-7,0.2-10.3,1.4c-1.9,0.7-3.7,1.6-5.3,2.7l-0.6,0.4l-15.2,15.3
	l-28.7,28.8l-4.9,4.9l-13.5-13.3c0.6-1.2,1.1-2.5,1.5-3.7c0.1-0.4,0.2-0.7,0.3-0.9c0-0.1,0-0.1,0.1-0.2l0-0.1c0.9-2.8,1.6-5.7,2-8.7
	c1.1-8,0.3-16.3-2.5-24c-9.4-25.8-38-39.1-63.7-29.7c-25.8,9.4-39.1,38-29.7,63.7c3.8,10.6,11.2,19.6,20.9,25.5
	c0.6,0.3,1.1,0.7,1.6,1l0.2,0.1c1.4,0.8,2.9,1.5,4.4,2.1l-3.7,39.9l-2.6,28.5l-4.9,52.6c-9.5-7.7-17.4-17-23.5-27.6
	c-0.5-0.9-1-1.8-1.4-2.6c-0.1-0.2-0.2-0.4-0.3-0.6l-0.2-0.4l-0.3-0.4c-4.2-6-10.7-9.6-17.6-10.3c-3.6-0.4-7.3,0.1-10.8,1.3
	c-8.1,3-14.1,10-15.7,18.5c-0.3,1.5-0.4,3.1-0.4,4.7v0.1c0,1.8,0.2,3.6,0.7,5.3l0.2,0.8l0.4,0.8c1.6,3.1,3.1,6,4.7,8.6
	c7.1,12.1,15.8,22.9,26,32.4c4,3.7,8.1,7.2,12.5,10.5c1.6,1.2,3.1,2.3,4.8,3.4c5.1,3.5,10.5,6.7,16,9.6l-2.6,27.8l-2.4,26.5
	l-0.3,3.6v0.4c0,2.7,0.5,5.4,1.4,7.9c0.2,0.5,0.4,1.1,0.7,1.6c2.4,5.4,6.7,9.5,11.7,11.9c5.5,2.6,12,3,18.2,0.8
	c5.6-2,10.2-6.1,12.9-11.2c0.9-1.7,1.6-3.4,2-5.3l0.1-0.5l4.6-47.3l0.3,0.1l3.4-37.1l1.2-12.7l-0.1,0l1.9-19.9
	c6.3,0.2,12.6-0.2,18.9-1.2c4.8-0.7,9.5-1.7,14.1-3.1c2.6-0.7,5.1-1.5,7.6-2.5c14-5.1,26.5-12.7,37.3-22.6l0,0l18.4-49.7l-20.4-20.2
	l-0.1-0.1l43.4-43.5l1.2-1.2l4.3-4.3l0.4-0.6c0.8-1.2,1.5-2.6,2.1-3.9c0.5-1.1,0.9-2.2,1.2-3.4C355.5,197.3,355.8,194.8,355.7,192.3
	z M250.7,303.8c-1.7,0.6-3.5,1.2-5.2,1.7c-2.8,0.8-5.7,1.3-8.6,1.7c-1.9,0.2-3.8,0.4-5.7,0.5l0.4-3.7l1.7-18l2.6-27.3l27.3,27.1
	l6.9,6.9C264.5,297.4,257.9,301.2,250.7,303.8z M339.4,228.4c-1.8,2.7-3,5.7-3.6,8.9c-0.3,1.5-0.5,3.1-0.5,4.7c0,0.4,0,0.9,0.1,1.3
	l6.8-18.5C341.1,225.9,340.2,227.1,339.4,228.4z"/>
<linearGradient id="SVGID_2_" gradientUnits="userSpaceOnUse" x1="312.8183" y1="85.2944" x2="467.7569" y2="419.3491">
	<stop  offset="0" style="stop-color:#42F1AE"/>
	<stop  offset="1" style="stop-color:#3BB3FE"/>
</linearGradient>
<path class="st3" d="M580.5,200c0-0.1,0-0.2-0.1-0.4v-0.1l-0.3-1.2c-0.7-2.6-1.7-5-3.1-7.3c0,0,0-0.1-0.1-0.1l-0.1-0.2
	c0-0.1-0.1-0.2-0.1-0.2c-0.9-1.6-2.1-3.1-3.3-4.4c-5.8-6.5-14.1-10.3-22.9-10.3c-2.5,0-4.9,0.3-7.3,0.9c-4,1-7.7,2.7-10.9,5.2
	c-3.3,2.4-6,5.4-8.1,9c-1,1.6-1.8,3.4-2.5,5.3c-0.6,1.6-1,3.3-1.3,5.1l-0.1,0.6l0,0.6c0,0.7,0,1.3-0.1,2l0,0.1
	c0,0.8-0.1,1.6-0.1,2.4l0,0.3c0,0.7-0.1,1.4-0.2,2.1c0,0.2-0.1,0.5-0.1,0.7c-0.2,1.8-0.3,3.2-0.5,4.5c0,0.1,0,0.1,0,0.2l-0.1,0.6
	c-0.2,1.3-0.4,2.8-0.7,4.5c0,0.1,0,0.2-0.1,0.3c0,0.2-0.1,0.5-0.1,0.8c-0.2,1.2-0.5,2.5-0.7,3.7l0,0.1c-0.1,0.5-0.2,1-0.3,1.5l0,0.1
	c-0.2,1-0.5,2-0.7,3c-0.1,0.4-0.2,0.8-0.3,1.2c-0.1,0.4-0.2,0.7-0.3,1.1l-0.1,0.4c-0.2,0.6-0.3,1.2-0.5,1.8l0,0.2
	c-0.3,0.9-0.6,1.9-0.9,2.8l-0.1,0.2c-0.1,0.4-0.2,0.8-0.4,1.2l-0.1,0.2c-0.4,1.2-0.8,2.3-1.3,3.6l-0.2,0.7
	c-2.1,5.4-4.5,10.7-7.3,15.8l-8.1-17.2L477,199.1l0-0.1l69.5-32.6l8.8-4.1l0.8-0.6c2.7-2,5-4.5,6.9-7.2c1.7-2.4,3-5.2,3.9-8.2l0-0.1
	c0.9-2.9,1.3-5.9,1.3-9c0-0.3,0-0.8,0-1.3c0-0.9-0.1-2.1-0.3-3.4c-0.1-0.7-0.2-1.3-0.4-2v-0.7l-0.7-1.6c-0.8-1.9-1.5-3.7-2.3-5.4
	c-0.1-0.3-0.3-0.7-0.5-1l-0.1-0.1c0-0.1-0.1-0.2-0.2-0.3c-0.9-1.6-2.1-3.1-3.3-4.4c-5.8-6.5-14.1-10.3-22.9-10.3
	c-2.5,0-5,0.3-7.3,0.9l-0.9,0.2l-24.4,11.4l-53.9,25.3L441,123c1.2-1.2,2.3-2.4,3.4-3.7c0.3-0.4,0.6-0.7,0.7-0.9
	c0.1-0.1,0.1-0.1,0.2-0.2l0.1-0.1c8.6-10.9,13.4-24.6,13.4-38.6c0-34.3-27.9-62.1-62.1-62.1c-34.3,0-62.2,27.9-62.2,62.1
	c0,14,4.8,27.8,13.6,38.8c0.5,0.7,1,1.3,1.5,1.8l0.2,0.2c1.3,1.5,2.8,3,4.3,4.4l-20.9,44.3l-15.7,33.3l-28.2,59.7
	c-7.9-13.1-13.2-27.4-15.8-42.5c-0.1-0.7-0.2-1.4-0.3-2c-0.1-0.9-0.2-1.7-0.4-2.5l-0.1-0.6l-0.2-0.6c-2.1-7.9-7.2-14.4-13.9-18.3
	c-4.6-2.8-10-4.3-15.6-4.3c-10.8,0-20.9,5.7-26.3,15c-1,1.6-1.8,3.4-2.5,5.3l0,0.1c-0.7,2.1-1.2,4.3-1.5,6.5l-0.1,1.1l0.1,1.1
	c0.5,4.4,1.1,8.3,1.9,12.1c3.5,18.8,9.8,36.6,18.9,53.3c2.5,4.6,5.2,9.1,8.1,13.5c1.3,2.1,2.7,4.1,4.2,6.1c4.5,6.3,9.4,12.3,14.7,18
	l-14.7,31.2l-14.4,30.4l-1.9,4.1l-0.1,0.4c-1.1,3.2-1.7,6.5-1.7,9.9c0,16.4,13.4,29.8,29.8,29.8c7.5,0,14.6-2.8,20-7.7
	c1.7-1.6,3.3-3.3,4.6-5.3l0.4-0.6l25.6-53.7l0.3,0.2l9.4-19.9l1-2.2l9.4-20l6.8-14.4l-0.1,0l10.8-22.6c13.8,5.4,28.3,8.5,43.2,9.3
	c2.5,0.1,4.9,0.2,7.4,0.2c18.6,0,36.6-3.6,53.5-10.6l3.9,8.2l7,14.6c-19.4,11.8-41.5,18-64.3,18c-4.5,0-8.9-0.2-13.3-0.7
	c-4.3-0.5-8.6-1.1-12.8-2c-2.7-0.6-5.1-1.2-7.3-1.8l-1-0.3l-1-0.1c-0.5,0-1.1,0-1.7,0c-2.5,0-5,0.3-7.3,0.9c-4,1-7.7,2.7-10.9,5.1
	c-3.3,2.4-6,5.5-8.1,9c-1,1.6-1.8,3.4-2.5,5.3c-0.6,1.6-1,3.2-1.3,5.1c-0.1,0.6-0.2,1.1-0.2,1.5c-0.2,1.3-0.2,2.5-0.2,3.7
	c0,0.7,0,1.4,0.1,2.1c0.1,1.7,0.4,3.4,0.8,5.2c0.5,1.9,1.1,3.7,1.9,5.4c0.9,2.1,2.1,4.1,3.5,5.9l0,0c2.8,3.7,6.5,6.7,10.7,8.8
	l0.8,0.4l0.8,0.2c1.4,0.4,2.7,0.7,4.1,1.1c1.8,0.5,3.5,0.9,5.2,1.2c0.7,0.1,1.3,0.3,2,0.4c19.8,4.1,40.5,5,60.9,2.5v0.3l7.1-1.2
	l3.5-0.6c5.1-0.9,10.3-2.1,15.3-3.5c14.4-4,28.3-9.7,41.5-17l27.2,57.1l0.6,0.8c5.9,7.6,14.7,12,24.3,12c10.1,0,19.6-5,25.3-13.4
	c1.7-2.4,3-5.2,3.9-8.2l0-0.1c0.9-2.9,1.3-5.9,1.3-9c0-0.3,0-0.8,0-1.3c-0.1-1-0.1-2.2-0.4-3.5l-0.2-1.2l-34-72
	c12.2-13.8,22.4-29.5,30-46.6c1.7-3.9,3.3-7.9,5-12.3c0.3-0.9,0.7-1.8,1-2.7c0.4-1,0.7-2.1,1-3.1c4.4-13.5,7.3-27.5,8.5-41.5
	c0-0.3,0.1-0.6,0.1-1c0.1-1.5,0.2-3,0.3-4.5l0.1-1c0.1-1.7,0.1-3.5,0.2-5.1v-0.3c0-0.3,0-0.5,0-0.8l0.1-1L580.5,200z M395.9,232.4
	c-4.9,0-9.8-0.4-14.5-1.3c-3.4-0.6-6.7-1.5-10-2.6l3-6.3l23.5-49.2l20.5,43.5l5.2,11C414.8,230.8,405.6,232.4,395.9,232.4z"/>
<linearGradient id="SVGID_3_" gradientUnits="userSpaceOnUse" x1="93.1056" y1="14.4709" x2="181.5873" y2="205.2415" gradientTransform="matrix(0.766 -0.6428 0.6428 0.766 -43.6814 402.0153)">
	<stop  offset="0" style="stop-color:#42F1AE"/>
	<stop  offset="1" style="stop-color:#3BB3FE"/>
</linearGradient>
<path style="fill:none;stroke:url(#SVGID_3_);stroke-width:3.2;stroke-miterlimit:10;" d="M153.6,325.2c0.4,0.8,0.9,1.7,1.4,2.6
	c6.1,10.6,14,19.9,23.5,27.6l4.9-52.6l2.6-28.5 M157.6,399.9c-3.7,2.8-7.7,5.1-11.9,6.8l-5.4-20.7 M135.2,313.5
	c-1.5-5.8-4.2-11.2-8.1-15.8c-14.1-16.8-39.2-19-56-4.9c-16.8,14.1-19,39.2-4.9,56c5.8,6.9,13.8,11.7,22.7,13.4
	c0.5,0.1,1,0.2,1.5,0.3l0.2,0c1.3,0.2,2.6,0.3,3.9,0.4l14,53.1l10.7,40.9c-9.2-3.2-17.7-8-25.2-14.3c-0.8-0.7-1.5-1.3-2.2-1.9
	l-0.3-0.3l-0.3-0.2c-7.2-5.1-17-4.6-23.8,1c-5.3,4.4-7.9,11.4-6.7,18.2c0.2,1.2,0.5,2.4,0.9,3.6l0,0.1c0.5,1.3,1.1,2.6,1.9,3.8
	l0.4,0.6l0.5,0.5c2.1,1.9,4,3.6,5.9,5.2c12,9.9,25.7,17.2,40.7,21.7c6.2,1.9,12.6,3.2,19.2,4.1l11.1,42.2l0.7,2.8l0.1,0.3
	c0.8,2,1.9,3.9,3.3,5.6c6.8,8.1,18.8,9.1,26.9,2.4c4.8-4.1,7.3-10.2,6.7-16.5l0-0.5l-9.5-36.8l0.2,0l-7.6-28.8l-2.6-9.8l-0.1,0
	l-4-15.5c5.4-1.8,10.7-4.2,15.6-7"/>
<linearGradient id="SVGID_4_" gradientUnits="userSpaceOnUse" x1="102.6189" y1="-109.2686" x2="173.4058" y2="43.3512" gradientTransform="matrix(0.5 -0.866 0.866 0.5 54.4632 636.8655)">
	<stop  offset="0" style="stop-color:#42F1AE"/>
	<stop  offset="1" style="stop-color:#3BB3FE"/>
</linearGradient>
<path style="fill:none;stroke:url(#SVGID_4_);stroke-width:2.56;stroke-miterlimit:10;" d="M97.5,490l9.9,14.4
	c2.8-2.5,5.1-5.3,7.1-8.5 M91.2,440.3l2-23.2l1.2-13.7l0.1-0.4c0.3-1.2,0.8-2.4,1.5-3.5c1.5-2.6,3.8-4.8,6.5-6.1 M135.6,519.5
	L135.6,519.5c-3.1,3.8-6.7,7.3-10.6,10.4l7.3,10.5l0,0l4.6,6.7l13.6,19.6l-0.2,0.1l17.2,25.1l0.2,0.3c2.2,4.5,2,9.9-0.5,14.2
	c-4.2,7.3-13.6,9.8-20.9,5.6c-1.5-0.9-2.8-2-4-3.3l-0.1-0.2l-1.3-1.9L121.1,578c-5.1,1.2-10.3,1.9-15.5,2.2
	c-12.5,0.7-24.8-1-36.5-5.2c-1.9-0.7-3.8-1.4-5.9-2.3l-0.5-0.2l-0.5-0.3c-0.9-0.7-1.8-1.5-2.5-2.4l0,0c-0.7-0.8-1.2-1.6-1.7-2.5
	c-2.7-4.8-2.7-10.7,0.1-15.5c3.5-6.1,10.8-9.1,17.6-7.3l0.3,0.1l0.3,0.1c0.7,0.3,1.4,0.5,2.2,0.8c7.4,2.7,15.1,4,22.9,3.9L82,521.7
	l-25-36.1c-1,0.3-2,0.6-3,0.8l-0.2,0c-0.4,0.1-0.8,0.1-1.2,0.2c-7.1,1.1-14.5-0.3-20.7-3.9c-15.2-8.8-20.4-28.3-11.6-43.5
	c8.8-15.2,28.3-20.4,43.5-11.6c4.3,2.5,7.9,5.9,10.7,10 M156.6,556.3C156.6,556.3,156.6,556.3,156.6,556.3c-0.3,0-0.5,0-0.8-0.1
	c-0.9-0.1-1.9-0.3-2.9-0.5c-0.9-0.3-1.8-0.6-2.5-1c-0.3-0.2-0.6-0.3-1-0.5c-0.5-0.3-1.1-0.7-1.6-1c-0.2-0.1-0.4-0.3-0.6-0.5
	c-0.7-0.6-1.4-1.2-1.9-1.9c-0.7-0.8-1.2-1.6-1.7-2.5c-0.7-1.2-1.2-2.4-1.5-3.7v0"/>
</svg>
