<?xml version="1.0" encoding="utf-8"?>
<!-- Generator: Adobe Illustrator 25.3.1, SVG Export Plug-In . SVG Version: 6.00 Build 0)  -->
<svg version="1.1" id="Layer_1" xmlns="http://www.w3.org/2000/svg" xmlns:xlink="http://www.w3.org/1999/xlink" x="0px" y="0px"
	 viewBox="0 0 1291 334.6" style="enable-background:new 0 0 1291 334.6;" xml:space="preserve">
<style type="text/css">
	.st0{fill:none;stroke:url(#SVGID_1_);stroke-width:4;stroke-miterlimit:10;}
	.st1{fill:none;stroke:#000000;stroke-width:15;stroke-miterlimit:10;}
	.st2{fill:none;stroke:#000000;stroke-width:4.9874;stroke-miterlimit:10;}
	.st3{fill:url(#SVGID_2_);}
	.st4{fill:url(#SVGID_3_);}
	.st5{fill:#FFFFFF;}
	.st6{fill:url(#SVGID_4_);}
	.st7{fill:url(#SVGID_5_);}
	.st8{fill:url(#SVGID_6_);}
	.st9{fill:url(#SVGID_7_);}
	.st10{fill:url(#SVGID_8_);}
	.st11{fill:url(#SVGID_9_);}
	.st12{fill:url(#SVGID_10_);}
	.st13{fill:url(#SVGID_11_);}
	.st14{fill:url(#SVGID_12_);}
	.st15{fill:#3A3A3A;}
	.st16{fill:url(#SVGID_13_);}
	.st17{fill:url(#SVGID_14_);}
	.st18{fill:url(#SVGID_15_);}
	.st19{fill:url(#SVGID_16_);}
	.st20{fill:url(#SVGID_17_);}
	.st21{fill:url(#SVGID_18_);}
	.st22{fill:url(#SVGID_19_);}
	.st23{fill:url(#SVGID_20_);}
	.st24{fill:url(#SVGID_21_);}
	.st25{opacity:0.15;}
	.st26{fill:#FCFCFC;}
	.st27{fill:url(#SVGID_22_);}
	.st28{fill:url(#SVGID_23_);}
	.st29{opacity:0.1;}
	.st30{fill:url(#SVGID_24_);}
	.st31{fill:url(#SVGID_25_);}
	.st32{fill:url(#SVGID_26_);}
	.st33{fill:url(#SVGID_27_);}
	.st34{fill:url(#SVGID_28_);}
	.st35{fill:none;stroke:url(#SVGID_29_);stroke-width:3.2;stroke-miterlimit:10;}
	.st36{fill:none;stroke:url(#SVGID_30_);stroke-width:2.56;stroke-miterlimit:10;}
</style>
<path class="st5" d="M1263.8,239.4c-5.1,0-8.9-1-11.4-3c-2.5-2-3.7-5.5-3.7-10.7c0-1.9,0.1-3.9,0.4-5.8c0.2-2,0.7-4,1.3-6
	l26.4-124.8h-52.9l-3.9,19.5V106c0-5.3-2.4-9.7-7.1-13.3c-4.7-3.6-12.3-5.4-22.7-5.4c-10.6,0-20.4,2-29.2,6
	c-8.8,4-16.8,9.4-23.8,16.1c-7,6.8-13.1,14.5-18.3,23.3c-5.2,8.8-9.5,18-13,27.5c-3.5,9.6-6,19.1-7.7,28.7
	c-1.7,9.6-2.5,18.5-2.5,26.9c0,0.9,0,1.7,0,2.6c-0.3,0.5-0.5,1-0.8,1.4c-2.3,4-4.8,7.4-7.7,10.3s-6,5.1-9.4,6.7
	c-3.4,1.6-6.9,2.4-10.5,2.4c-5.1,0-8.9-1-11.3-3c-2.4-2-3.6-5.5-3.6-10.7c0-1.9,0.1-3.9,0.3-5.8c0.2-2,0.6-4,1.2-6l23.5-110.1h22
	l2.9-14.7h-22l12.5-58.1l-54.3,7.3l-11.1,50.7h-12l-3,14.7h12.2l-22,103.1c-1.9,4.8-3.9,9.2-5.8,13.2c-2,4-4.2,7.4-6.5,10.3
	c-2.4,2.9-5.1,5.1-8.1,6.6c-3,1.6-6.5,2.3-10.4,2.3c-5.6,0-9.5-1.4-11.6-4.3c-2.1-2.9-3.1-6.6-3.1-11.1c0-3.5,0.4-7.5,1.3-12.1
	c0.9-4.6,2-9.6,3.3-15c1.3-5.4,2.7-11,4.2-16.9c1.5-5.9,2.9-11.7,4.2-17.7c1.3-5.9,2.4-11.7,3.3-17.4c0.9-5.7,1.3-11,1.3-15.9
	c0-7.3-1-13.6-3-18.8c-2-5.3-4.9-9.6-8.5-12.9c-3.6-3.3-8-5.8-13-7.3c-5-1.6-10.5-2.3-16.3-2.3c-2.9,0-5.9,0.2-9.2,0.7
	c-3.3,0.5-6.8,1.4-10.5,2.9c-3.7,1.4-7.5,3.5-11.4,6.2c-3.9,2.7-7.8,6.2-11.7,10.7l3.9-19H842L817,207.4c-1.3,4.5-2.9,8.8-4.7,12.9
	c-1.9,4.2-4.1,7.9-6.6,11c-2.5,3.1-5.3,5.6-8.3,7.4c-3,1.9-6.4,2.8-9.9,2.8c-10,0-15.1-5.3-15.1-15.8c0-1.9,0.1-3.9,0.4-5.8
	c0.2-2,0.7-4,1.3-6l26.4-124.8h-52.9l-3.9,19.5V106c0-5.3-2.4-9.7-7.1-13.3c-4.7-3.6-12.3-5.4-22.7-5.4c-10.6,0-20.4,2-29.2,6
	c-8.8,4-16.8,9.4-23.8,16.1c-7,6.8-13.1,14.5-18.3,23.3c-5.2,8.8-9.5,18-13,27.5c-3.5,9.6-6,19.1-7.7,28.7
	c-1.7,9.6-2.5,18.5-2.5,26.9c0,0.9,0,1.7,0,2.6c-0.3,0.5-0.5,1-0.8,1.4c-2.3,4-4.8,7.4-7.7,10.3s-6,5.1-9.4,6.7
	c-3.4,1.6-6.9,2.4-10.5,2.4c-4.2,0-7.5-1-9.9-3.1c-2.5-2.1-4.4-4.8-5.9-8c-1.5-3.2-2.7-6.7-3.5-10.5c-0.8-3.8-1.6-7.4-2.3-10.8
	L566,189c9.3-10,17.3-19.2,23.9-27.3c6.6-8.2,12.1-15.8,16.3-22.9c4.2-7.1,7.3-13.8,9.3-20c2-6.2,3-12.3,3-18.3
	c0-4.4-0.5-8.6-1.6-12.5c-1.1-3.9-2.7-7.3-4.8-10.1c-2.2-2.9-4.8-5.1-8.1-6.8c-3.2-1.7-7-2.5-11.3-2.5c-5.7,0-10.5,1.5-14.2,4.6
	c-3.7,3-5.6,7.8-5.6,14.3c0,2.3,0.3,4.5,0.8,6.8c0.5,2.3,1.5,4.3,2.8,6.1c1.3,1.8,3,3.3,5.2,4.4c2.2,1.1,4.8,1.7,8.1,1.7
	c1.3,0,2.4-0.1,3.3-0.2c0.9-0.1,2-0.3,3.3-0.5c0.2,0.6,0.4,1.3,0.4,2s0,1.6,0,2.5c0,3.2-0.8,7-2.3,11.3c-1.6,4.3-3.8,9-6.8,14
	c-3,5-6.7,10.3-11,15.9c-4.4,5.6-9.3,11.3-14.8,17.1l-14.2-79.2h-51.8l21,113.8c-6.2,6.8-13,12.8-20.3,18.1
	c-7.3,5.3-14.7,9.6-22.3,13.1c-7.6,3.5-15.1,6.1-22.7,7.9c-7.5,1.8-14.6,2.7-21.2,2.7c-5.1,0-9.9-0.6-14.4-1.8
	c-4.5-1.2-8.4-3.2-11.7-6c-3.3-2.8-5.9-6.5-7.8-11.2c-1.9-4.7-2.9-10.4-2.9-17.2c0-1.6,0-3.2,0.1-4.9c0.1-1.7,0.2-3.4,0.4-5.1
	c11.1-0.7,21.8-3.2,32-7.3c10.2-4.2,19.2-9.7,27.1-16.5c7.8-6.8,14.1-14.8,18.7-23.9c4.7-9.1,7-19,7-29.7c0-4.5-0.6-8.9-1.7-13.2
	c-1.1-4.2-3.2-8-6.3-11.2c-3-3.2-7.2-5.8-12.4-7.8c-5.2-2-11.9-3-20.2-3c-12.5,0-23.7,2.3-33.5,6.8c-9.8,4.5-18.3,10.5-25.6,17.8
	c-7.3,7.3-13.5,15.7-18.6,24.9c-5.1,9.3-9.3,18.7-12.4,28.2c-3.1,9.6-5.4,18.8-6.8,27.8c-1.4,9-2.2,16.8-2.2,23.5
	c0,11.1,1.7,20.5,5.2,28.1c3.5,7.6,8.2,13.8,14.2,18.5c6,4.7,12.9,8,20.8,10.1c7.9,2.1,16.3,3.1,25.3,3.1c10.3,0,20.7-1.2,31.3-3.7
	c10.6-2.4,20.9-5.9,31-10.4c10.1-4.5,19.7-9.8,28.9-16c9.1-6.2,17.4-13.1,24.8-20.8c2.2,9.2,4.5,17,7.1,23.5
	c2.6,6.5,5.6,11.7,9.1,15.8c3.5,4.1,7.5,7,12,8.9c4.5,1.9,9.9,2.8,16,2.8c4.5,0,10-0.7,16.4-2.2c6.4-1.4,13.1-4.5,20-9.3
	c6.9-4.8,13.7-11.7,20.4-20.6c0.3-0.4,0.6-0.9,0.9-1.3c0.2,0.7,0.4,1.4,0.7,2c2.7,7.5,6.4,13.6,10.9,18.3c4.5,4.7,9.7,8,15.6,10
	c5.9,2,11.9,3,18.3,3c6.6,0,12.6-1,18-3c5.4-2,10.4-4.5,14.8-7.7c4.4-3.2,8.4-6.8,12-10.8c3.6-4,6.9-8.1,9.9-12.3
	c1.3,11.1,5,19.5,11.2,25.2c6.2,5.7,14.4,8.5,24.8,8.5c3.2,0,6.8-0.3,10.8-0.9c3.9-0.6,8.1-1.7,12.4-3.4c4.3-1.7,8.7-4.1,13.3-7.2
	c4.1-2.8,8.2-6.4,12.2-10.9l-4.3,20.2H856L880.9,155c1.4-4.7,3.1-9.1,5-13.2c1.9-4.1,4.1-7.7,6.5-10.8c2.4-3,5-5.5,7.9-7.3
	c2.9-1.8,6-2.7,9.3-2.7c8.8,0,13.3,6.3,13.3,18.8c0,5.9-0.9,12.8-2.6,21c-1.7,8.1-3.6,16.6-5.6,25.3c-2,8.7-3.9,17.2-5.6,25.5
	c-1.7,8.3-2.6,15.6-2.6,21.8c0,5.3,0.7,10.4,2.2,15.3c1.5,5,3.9,9.4,7.3,13.3c3.3,3.9,7.8,7,13.3,9.3c5.5,2.3,12.3,3.5,20.4,3.5
	c4.9,0,10.2-0.7,16-2.2c5.8-1.4,11.7-4.5,17.7-9.2c5.8-4.6,11.6-11.1,17.3-19.7c0.5,2.5,1.1,4.9,1.9,7c2,5.5,4.8,10,8.3,13.6
	c3.5,3.6,7.7,6.2,12.5,7.9c4.8,1.7,9.9,2.5,15.4,2.5c3.2,0,6.9-0.3,11-0.9c4.1-0.6,8.5-1.7,13-3.4c4.5-1.7,9.2-4.1,14.1-7.2
	c4.8-3.1,9.6-7.2,14.2-12.2c2.7-2.9,5.3-6.3,7.9-10c0.2,0.8,0.5,1.6,0.8,2.3c2.7,7.5,6.4,13.6,10.9,18.3c4.5,4.7,9.7,8,15.6,10
	c5.9,2,11.9,3,18.3,3c6.5,0,12.4-1,17.9-3c5.5-2,10.5-4.6,15-7.8c4.5-3.2,8.5-6.9,12.2-10.9c3.6-4.1,6.8-8.2,9.6-12.4
	c1.4,10.9,5.3,19.3,11.5,25.2c6.2,5.9,14.4,8.9,24.6,8.9c4.8,0,8.9-0.7,12.5-2.2c3.5-1.5,6.7-3.8,9.4-6.8c2.7-3,5.3-6.9,7.5-11.6
	c2.3-4.7,4.7-10.2,7.2-16.5c-1.1,0.6-2.3,1-3.6,1.3C1267,239.3,1265.5,239.4,1263.8,239.4z M404.4,154.8c3.1-9,6.6-17.1,10.6-24.5
	c3.9-7.3,8.2-13.4,12.7-18c4.5-4.7,9.1-7,13.8-7c3.5,0,5.9,1.4,7.2,4.1c1.3,2.8,2,6.4,2,10.9c0,7.6-1.5,15.1-4.4,22.2
	c-2.9,7.2-6.9,13.5-11.8,19.1c-5,5.6-10.7,10.1-17.1,13.6c-6.5,3.5-13.2,5.4-20.3,5.6C398.9,172.5,401.3,163.7,404.4,154.8z
	 M722.4,206.9c-1.2,5.4-3,10.1-5.3,14.2c-2.3,4.1-4.9,7.4-7.7,10.1c-2.8,2.7-5.7,4.7-8.8,6.1c-3,1.4-5.9,2.1-8.7,2.1
	c-1.7,0-3.6-0.2-5.7-0.5c-2.2-0.4-4.2-1.5-6-3.3c-1.9-1.9-3.4-4.7-4.8-8.5c-1.3-3.8-2-9.3-2-16.3c0-5.7,0.5-12.2,1.6-19.5
	c1.1-7.2,2.7-14.6,4.8-22c2.1-7.5,4.6-14.7,7.6-21.8c3-7,6.4-13.4,10.2-18.9c3.8-5.6,8-10,12.6-13.4c4.6-3.3,9.5-5,14.6-5
	c3,0,5.4,0.5,7.3,1.5c1.9,1,3.4,2.3,4.6,3.8c1.1,1.5,1.9,3,2.4,4.7c0.5,1.6,0.7,3,0.7,4L722.4,206.9z M1198.9,206.9
	c-1.2,5.4-3,10.1-5.3,14.2c-2.3,4.1-4.9,7.4-7.7,10.1c-2.8,2.7-5.7,4.7-8.8,6.1c-3,1.4-5.9,2.1-8.7,2.1c-1.7,0-3.6-0.2-5.7-0.5
	c-2.2-0.4-4.2-1.5-6-3.3c-1.9-1.9-3.4-4.7-4.8-8.5c-1.3-3.8-2-9.3-2-16.3c0-5.7,0.5-12.2,1.6-19.5c1.1-7.2,2.7-14.6,4.8-22
	c2.1-7.5,4.6-14.7,7.6-21.8c3-7,6.4-13.4,10.2-18.9c3.8-5.6,8-10,12.6-13.4c4.6-3.3,9.5-5,14.6-5c3,0,5.4,0.5,7.3,1.5
	c1.9,1,3.4,2.3,4.6,3.8c1.1,1.5,1.9,3,2.4,4.7c0.5,1.6,0.7,3,0.7,4L1198.9,206.9z"/>
<linearGradient id="SVGID_1_" gradientUnits="userSpaceOnUse" x1="102.5899" y1="69.7774" x2="206.738" y2="294.3256">
	<stop  offset="0" style="stop-color:#42F1AE"/>
	<stop  offset="1" style="stop-color:#3BB3FE"/>
</linearGradient>
<path style="fill:url(#SVGID_1_);" d="M282.5,146.8c0-0.1,0-0.2,0-0.2v-0.1l-0.2-0.8c-0.5-1.7-1.2-3.4-2.1-4.9c0,0,0,0,0-0.1
	l-0.1-0.2c0,0-0.1-0.1-0.1-0.1c-0.6-1.1-1.4-2.1-2.2-3c-3.9-4.4-9.5-6.9-15.4-6.9c-1.7,0-3.3,0.2-4.9,0.6c-2.7,0.6-5.2,1.8-7.4,3.5
	c-2.2,1.6-4,3.7-5.4,6c-0.7,1.1-1.2,2.3-1.7,3.6c-0.4,1.1-0.7,2.2-0.9,3.4l-0.1,0.4l0,0.4c0,0.4,0,0.9,0,1.3l0,0.1
	c0,0.5-0.1,1.1-0.1,1.6l0,0.2c0,0.5-0.1,0.9-0.1,1.4c0,0.2,0,0.3,0,0.5c-0.1,1.2-0.2,2.2-0.3,3c0,0,0,0.1,0,0.1l-0.1,0.4
	c-0.1,0.9-0.3,1.9-0.5,3c0,0.1,0,0.1,0,0.2c0,0.2-0.1,0.3-0.1,0.5c-0.2,0.8-0.3,1.7-0.5,2.5l0,0c-0.1,0.3-0.1,0.7-0.2,1l0,0.1
	c-0.2,0.7-0.3,1.4-0.5,2c-0.1,0.3-0.1,0.5-0.2,0.8c-0.1,0.2-0.1,0.5-0.2,0.7l-0.1,0.3c-0.1,0.4-0.2,0.8-0.3,1.2l0,0.1
	c-0.2,0.6-0.4,1.3-0.6,1.9l-0.1,0.2c-0.1,0.3-0.2,0.5-0.3,0.8l-0.1,0.1c-0.3,0.8-0.5,1.6-0.8,2.4l-0.2,0.5c-1.4,3.7-3,7.2-4.9,10.6
	l-5.5-11.6l-13.3-28.3l0-0.1l46.7-21.9l5.9-2.8l0.5-0.4c1.8-1.4,3.4-3,4.7-4.9c1.1-1.6,2-3.5,2.6-5.5l0,0c0.6-1.9,0.9-4,0.9-6.1
	c0-0.2,0-0.5,0-0.9c0-0.6-0.1-1.4-0.2-2.3c-0.1-0.4-0.1-0.9-0.2-1.3v-0.5l-0.5-1.1c-0.5-1.3-1-2.5-1.6-3.6c-0.1-0.2-0.2-0.4-0.3-0.7
	l-0.1-0.1c0-0.1-0.1-0.1-0.1-0.2c-0.6-1.1-1.4-2.1-2.2-3c-3.9-4.4-9.5-6.9-15.4-6.9c-1.7,0-3.3,0.2-4.9,0.6l-0.6,0.1l-16.4,7.7
	l-36.3,17l-6.8-14.4c0.8-0.8,1.5-1.6,2.3-2.5c0.2-0.2,0.4-0.5,0.5-0.6c0,0,0.1-0.1,0.1-0.1l0-0.1c5.8-7.3,9-16.5,9-25.9
	c0-23-18.7-41.8-41.8-41.8c-23,0-41.8,18.7-41.8,41.8c0,9.4,3.3,18.7,9.2,26.1c0.3,0.4,0.7,0.9,1,1.2l0.1,0.2c0.9,1,1.9,2,2.9,3
	l-24.6,52.2l-19,40.2c-5.3-8.8-8.8-18.4-10.6-28.6c-0.2-1.1-0.3-2.1-0.5-3l-0.1-0.4l-0.1-0.4c-2.4-9-10.6-15.2-19.9-15.2
	c-7.2,0-14,3.9-17.7,10.1c-0.7,1.1-1.2,2.3-1.7,3.6l0,0.1c-0.5,1.4-0.8,2.9-1,4.4l-0.1,0.7l0.1,0.7c0.4,2.9,0.8,5.6,1.3,8.2
	c3,16.1,9.1,31.2,18.1,44.9c3.7,5.7,8,11.1,12.7,16.2l-19.6,41.4l-1.3,2.7l-0.1,0.3c-0.8,2.1-1.1,4.4-1.1,6.7c0,11.1,9,20,20,20
	c6.6,0,12.8-3.3,16.6-8.7l0.3-0.4l17.2-36.1l0.2,0.2l13.3-28.3l4.5-9.7l-0.1,0l7.2-15.2c10.8,4.2,22.2,6.4,34,6.4
	c12.5,0,24.6-2.4,36-7.2l2.6,5.5l4.7,9.8c-13,7.9-27.9,12.1-43.2,12.1c-5.9,0-11.9-0.6-17.5-1.8c-1.8-0.4-3.4-0.8-4.9-1.2l-0.7-0.2
	l-0.7,0c-0.3,0-0.7,0-1.1,0c-1.7,0-3.3,0.2-4.9,0.6c-2.7,0.6-5.2,1.8-7.4,3.5c-2.2,1.6-4,3.7-5.4,6c-0.7,1.1-1.2,2.3-1.7,3.6
	c-0.4,1.1-0.7,2.2-0.9,3.4c-0.1,0.4-0.1,0.7-0.1,1c-0.1,0.9-0.2,1.7-0.2,2.5c0,0.5,0,0.9,0.1,1.4c0.1,1.1,0.2,2.3,0.5,3.5
	c0.3,1.3,0.7,2.5,1.2,3.6c0.6,1.4,1.4,2.7,2.4,4l0,0c1.9,2.5,4.4,4.5,7.2,5.9l0.5,0.3l0.6,0.2c2.1,0.6,4.2,1.1,6.3,1.6
	c13.7,3,28.1,3.7,42.2,1.9v0.2l7.1-1.3c3.5-0.6,6.9-1.4,10.3-2.3c9.7-2.7,19.1-6.5,27.9-11.4l18.3,38.4l0.4,0.5
	c3.9,5.1,9.9,8,16.3,8c6.8,0,13.2-3.4,17-9c1.1-1.6,2-3.5,2.6-5.5l0,0c0.6-1.9,0.9-4,0.9-6.1c0-0.2,0-0.5,0-0.9
	c0-0.6-0.1-1.5-0.2-2.4l-0.1-0.8l-22.8-48.4c8.2-9.3,15-19.8,20.2-31.3c1.2-2.6,2.3-5.3,3.3-8.3c0.2-0.6,0.4-1.2,0.6-1.8
	c0.2-0.7,0.5-1.4,0.7-2.1c3-9.1,4.9-18.5,5.7-27.9c0-0.2,0-0.4,0-0.7c0.1-1,0.1-2,0.2-3l0-0.7c0.1-1.2,0.1-2.3,0.1-3.4l0-0.2
	c0-0.2,0-0.4,0-0.5l0-0.7L282.5,146.8z M158.5,168.7c-5.7,0-11.2-0.9-16.5-2.6l17.8-37.4l13.8,29.2l3.5,7.4
	C171.2,167.6,164.9,168.7,158.5,168.7z"/>
</svg>
